<svg version="1.1" id="Layer_1" xmlns="http://www.w3.org/2000/svg" xmlns:xlink="http://www.w3.org/1999/xlink" x="0px" y="0px"
	 width="100%" viewBox="0 0 2400 2400" enable-background="new 0 0 2400 2400" xml:space="preserve">
<path fill="#000000" opacity="1.000000" stroke="none" 
	d="
M2.000004,1142.000000 
	C2.000000,762.140991 2.000000,382.281952 2.000000,2.000000 
	C380.718231,2.000000 759.436646,2.000000 1139.695435,2.752678 
	C1139.176147,4.222449 1137.156250,5.394002 1135.049927,5.578678 
	C1125.480103,6.417710 1115.890259,7.054622 1106.299438,7.626012 
	C1072.868164,9.617758 1039.770874,14.273100 1006.742249,19.652811 
	C946.715881,29.429943 887.837891,43.930447 830.082092,62.849380 
	C768.135437,83.141144 708.219482,108.325279 650.358521,138.456680 
	C581.160156,174.492157 516.070679,216.745804 455.109009,265.413391 
	C421.880707,291.940582 390.086151,320.059692 359.427612,350.387054 
	C346.929626,363.159393 335.088654,375.737762 323.185913,388.257385 
	C295.018555,417.884338 269.109711,449.426636 244.616211,482.101227 
	C194.854691,548.483582 152.241165,619.213013 117.117256,694.403015 
	C112.915627,703.397400 109.350662,712.689209 104.934494,722.257080 
	C83.016418,771.701965 64.696114,821.846069 50.310722,873.358032 
	C38.604164,915.277466 27.714382,957.418335 21.655785,1000.626648 
	C18.327686,1024.361694 14.951900,1048.090332 11.706873,1071.836792 
	C10.459255,1080.966553 9.206712,1090.114258 8.510337,1099.295898 
	C7.635258,1110.833740 7.328676,1122.414551 6.562242,1134.847900 
	C6.022707,1137.919312 5.770360,1140.137939 5.230308,1142.283813 
	C5.188559,1142.449707 3.124245,1142.106567 2.000004,1142.000000 
z"/>
<path fill="#000000" opacity="1.000000" stroke="none" 
	d="
M1124.000000,2402.000000 
	C750.138489,2402.000000 376.277008,2402.000000 2.000000,2402.000000 
	C2.000000,2015.948364 2.000000,1629.896729 2.832743,1242.653809 
	C4.327878,1243.572388 5.544593,1245.676025 5.568840,1247.793213 
	C5.891713,1275.985840 7.953395,1304.054688 11.692285,1331.983887 
	C15.378578,1359.519897 18.297590,1387.227783 23.601191,1414.461426 
	C30.877857,1451.827026 39.366680,1488.998779 48.732075,1525.899414 
	C54.416019,1548.294800 62.734104,1570.021851 69.861755,1592.813965 
	C72.619476,1601.390503 75.307816,1609.230225 78.161270,1617.009277 
	C98.886986,1673.510742 123.655937,1728.206421 152.741821,1780.871826 
	C181.607376,1833.138672 214.123001,1883.117432 250.144806,1930.746216 
	C260.059814,1943.856079 271.162231,1956.067871 281.830963,1969.347900 
	C306.530823,1997.016357 330.547119,2024.580933 355.900879,2050.854980 
	C374.101532,2069.716064 393.379089,2087.698486 413.448853,2104.557861 
	C442.649933,2129.088379 472.515778,2152.895264 503.016235,2175.787598 
	C524.856567,2192.180176 548.004517,2206.872559 570.955200,2221.726807 
	C582.775757,2229.377441 595.439697,2235.725098 608.059570,2243.256836 
	C633.937073,2257.166748 659.269348,2270.900391 685.062500,2283.705566 
	C734.496033,2308.247803 785.824036,2328.321045 838.399719,2344.894531 
	C921.780273,2371.178711 1006.918701,2389.281494 1094.221069,2396.330322 
	C1103.133789,2397.050049 1112.058594,2397.623291 1120.965942,2398.400635 
	C1122.881592,2398.568115 1126.090576,2398.207764 1124.000000,2402.000000 
z"/>
<path fill="#000000" opacity="1.000000" stroke="none" 
	d="
M1266.000000,2.000000 
	C1644.523804,2.000000 2023.047729,2.000000 2402.000000,2.000000 
	C2402.000000,370.051575 2402.000000,738.103271 2401.253906,1107.688110 
	C2399.782471,1107.493652 2398.601562,1105.817383 2398.400635,1104.030884 
	C2395.402832,1077.360107 2393.438721,1050.538696 2389.442627,1024.022095 
	C2381.677002,972.488464 2370.813477,921.543701 2356.146484,871.495850 
	C2350.658203,852.766907 2344.154053,834.335693 2338.104736,815.026611 
	C2336.219727,809.480225 2334.292236,804.695190 2332.476807,799.867981 
	C2328.482666,789.246094 2324.827881,778.486633 2320.519531,767.994934 
	C2313.612793,751.175476 2306.342041,734.504517 2299.124756,717.814087 
	C2292.303955,702.040283 2285.937988,686.035095 2278.356689,670.631348 
	C2251.176514,615.406738 2219.827393,562.614624 2184.286865,512.342590 
	C2155.351562,471.414276 2124.565186,431.967316 2089.835938,394.777679 
	C2086.830566,391.173340 2084.183594,388.196350 2081.438477,385.312744 
	C2072.028809,375.428192 2062.924072,365.221252 2053.071045,355.798401 
	C2039.695435,343.007080 2025.674927,330.892822 2012.052612,318.356079 
	C2004.340576,311.258606 1997.303955,303.368591 1989.213623,296.752106 
	C1964.274780,276.356323 1939.505371,255.692368 1913.714233,236.411407 
	C1843.391724,183.839569 1767.632690,140.381317 1687.304321,105.044395 
	C1622.134766,76.375931 1554.921997,53.602146 1485.627319,36.940826 
	C1418.416992,20.780699 1350.356689,10.529678 1281.437988,5.744318 
	C1277.123291,5.444727 1272.762695,5.769409 1268.456299,5.409980 
	C1267.040894,5.291841 1263.864624,5.226144 1266.000000,2.000000 
z"/>
<path fill="#000000" opacity="1.000000" stroke="none" 
	d="
M2402.000000,1296.000000 
	C2402.000000,1664.526733 2402.000000,2033.053345 2402.000000,2402.000000 
	C2029.281738,2402.000000 1656.563354,2402.000000 1282.396484,2401.223877 
	C1282.734497,2399.742676 1284.475220,2398.587646 1286.314453,2398.400146 
	C1313.657593,2395.614014 1341.087158,2393.543701 1368.349487,2390.131104 
	C1410.149658,2384.898438 1451.440918,2376.649902 1492.305786,2366.427246 
	C1530.621216,2356.842285 1568.429565,2345.563721 1605.655396,2332.274170 
	C1649.168823,2316.740479 1691.654785,2298.836670 1733.134033,2278.530029 
	C1774.647949,2258.206299 1815.097900,2235.876709 1853.490723,2210.165771 
	C1883.270020,2190.223389 1911.939941,2168.624512 1941.696045,2147.414307 
	C1985.002808,2113.726562 2025.155151,2077.592773 2062.951660,2038.718262 
	C2096.835205,2003.868774 2128.460205,1967.174438 2157.940674,1928.574585 
	C2186.214844,1891.554688 2212.381348,1853.102905 2235.766113,1812.819946 
	C2248.432861,1791.000244 2260.809814,1768.977417 2272.339844,1746.543945 
	C2281.726562,1728.280640 2289.658936,1709.269897 2298.798828,1690.132812 
	C2312.339355,1656.528198 2326.141846,1623.676025 2338.109619,1590.168457 
	C2358.351074,1533.496460 2372.790039,1475.189453 2383.566650,1416.006958 
	C2386.826660,1398.103638 2388.988525,1380.000610 2391.949951,1361.191895 
	C2393.610596,1347.953979 2395.037842,1335.519653 2396.315918,1323.070068 
	C2397.123779,1315.202271 2397.625000,1307.302734 2398.456299,1299.437866 
	C2398.646973,1297.634644 2398.196289,1294.409180 2402.000000,1296.000000 
z"/>
<path fill="#FBFBFB" opacity="1.000000" stroke="none" 
	d="
M1265.062744,2.000000 
	C1263.864624,5.226144 1267.040894,5.291841 1268.456299,5.409980 
	C1272.762695,5.769409 1277.123291,5.444727 1281.437988,5.744318 
	C1350.356689,10.529678 1418.416992,20.780699 1485.627319,36.940826 
	C1554.921997,53.602146 1622.134766,76.375931 1687.304321,105.044395 
	C1767.632690,140.381317 1843.391724,183.839569 1913.714233,236.411407 
	C1939.505371,255.692368 1964.274780,276.356323 1989.213623,296.752106 
	C1997.303955,303.368591 2004.340576,311.258606 2012.052612,318.356079 
	C2025.674927,330.892822 2039.695435,343.007080 2053.071045,355.798401 
	C2062.924072,365.221252 2072.028809,375.428192 2081.438477,385.312744 
	C2084.183594,388.196350 2086.830566,391.173340 2088.862793,394.932617 
	C2083.009521,396.505127 2077.819580,397.872040 2072.622070,397.900024 
	C2037.196289,398.090820 2001.768921,398.004761 1966.342163,397.990082 
	C1963.696777,397.988983 1960.696045,398.623871 1958.480835,397.609161 
	C1954.040771,395.575348 1950.114136,397.133453 1945.386963,397.718658 
	C1936.583252,390.128845 1928.498047,382.688843 1920.161621,375.541809 
	C1891.601562,351.056671 1862.136108,327.690186 1831.135376,306.381561 
	C1812.525391,293.589844 1793.168945,281.884216 1773.721680,269.176697 
	C1743.317993,249.989716 1712.249146,233.346527 1680.485352,217.907318 
	C1630.397217,193.561417 1578.791382,173.155075 1525.593140,156.723404 
	C1487.768066,145.040222 1449.474609,135.244095 1410.560425,127.915810 
	C1377.916748,121.768410 1345.119385,116.832138 1312.026733,113.634842 
	C1279.572998,110.499283 1247.113037,107.768921 1214.500854,108.070419 
	C1187.883545,108.316498 1161.268555,109.173882 1134.661743,110.043755 
	C1123.040527,110.423691 1111.368774,110.931358 1099.848511,112.394005 
	C1072.522705,115.863327 1045.239990,119.714127 1018.001099,123.817627 
	C971.244568,130.861450 925.515686,142.470200 880.351379,156.236526 
	C804.599609,179.326080 732.335999,210.681641 663.315918,249.469482 
	C651.171326,256.294495 639.545715,264.042999 627.002563,271.572510 
	C596.824585,289.018829 568.997681,308.724487 541.701965,329.210327 
	C530.610229,337.534882 519.558655,345.913055 507.561279,354.189270 
	C498.093262,354.741119 489.555786,355.861389 481.011780,355.913635 
	C446.842072,356.122650 412.670227,356.033936 378.499451,355.949768 
	C374.903870,355.940918 371.199493,355.648865 367.749786,354.725433 
	C364.921570,353.968292 360.543762,355.103851 360.056580,350.166382 
	C390.086151,320.059692 421.880707,291.940582 455.109009,265.413391 
	C516.070679,216.745804 581.160156,174.492157 650.358521,138.456680 
	C708.219482,108.325279 768.135437,83.141144 830.082092,62.849380 
	C887.837891,43.930447 946.715881,29.429943 1006.742249,19.652811 
	C1039.770874,14.273100 1072.868164,9.617758 1106.299438,7.626012 
	C1115.890259,7.054622 1125.480103,6.417710 1135.049927,5.578678 
	C1137.156250,5.394002 1139.176147,4.222449 1140.617920,2.752678 
	C1181.375122,2.000000 1222.750244,2.000000 1265.062744,2.000000 
z"/>
<path fill="#CCCDCD" opacity="1.000000" stroke="none" 
	d="
M1941.102905,2147.761719 
	C1911.939941,2168.624512 1883.270020,2190.223389 1853.490723,2210.165771 
	C1815.097900,2235.876709 1774.647949,2258.206299 1733.134033,2278.530029 
	C1691.654785,2298.836670 1649.168823,2316.740479 1605.655396,2332.274170 
	C1568.429565,2345.563721 1530.621216,2356.842285 1492.305786,2366.427246 
	C1451.440918,2376.649902 1410.149658,2384.898438 1368.349487,2390.131104 
	C1341.087158,2393.543701 1313.657593,2395.614014 1286.314453,2398.400146 
	C1284.475220,2398.587646 1282.734497,2399.742676 1281.473877,2401.223877 
	C1229.958252,2402.000000 1177.916382,2402.000000 1124.937256,2402.000000 
	C1126.090576,2398.207764 1122.881592,2398.568115 1120.965942,2398.400635 
	C1112.058594,2397.623291 1103.133789,2397.050049 1094.221069,2396.330322 
	C1006.918701,2389.281494 921.780273,2371.178711 838.399719,2344.894531 
	C785.824036,2328.321045 734.496033,2308.247803 685.062500,2283.705566 
	C659.269348,2270.900391 633.937073,2257.166748 608.432495,2242.504395 
	C611.508118,2236.667969 616.192139,2238.050537 620.331177,2238.046387 
	C684.442200,2237.980225 748.553467,2238.070557 812.663879,2237.865723 
	C817.776855,2237.849365 822.883850,2235.929932 828.637939,2235.101562 
	C835.235046,2237.106445 841.254395,2238.711182 847.130737,2240.731445 
	C951.120056,2276.488525 1058.181885,2295.604980 1167.972778,2299.516357 
	C1207.261230,2300.916260 1246.516357,2299.572266 1285.754761,2296.585693 
	C1333.612549,2292.943359 1380.948486,2286.125488 1427.898315,2276.290283 
	C1533.557861,2254.156982 1633.641113,2216.970459 1728.316406,2165.178467 
	C1743.781372,2156.718506 1759.035278,2147.872803 1775.260986,2139.573975 
	C1780.653931,2140.628174 1785.170776,2141.895264 1789.691650,2141.910156 
	C1834.482056,2142.058838 1879.273193,2142.000977 1924.064087,2141.998535 
	C1930.396484,2141.998047 1936.777466,2141.836426 1941.102905,2147.761719 
z"/>
<path fill="#E1E2E2" opacity="1.000000" stroke="none" 
	d="
M69.868828,1592.049072 
	C62.734104,1570.021851 54.416019,1548.294800 48.732075,1525.899414 
	C39.366680,1488.998779 30.877857,1451.827026 23.601191,1414.461426 
	C18.297590,1387.227783 15.378578,1359.519897 11.692285,1331.983887 
	C7.953395,1304.054688 5.891713,1275.985840 5.568840,1247.793213 
	C5.544593,1245.676025 4.327878,1243.572388 2.832743,1241.731201 
	C2.000000,1209.291504 2.000000,1176.583130 2.000004,1142.937256 
	C3.124245,1142.106567 5.188559,1142.449707 5.230308,1142.283813 
	C5.770360,1140.137939 6.022707,1137.919312 7.449705,1134.843018 
	C36.455364,1133.978027 64.359695,1134.090942 92.262108,1133.908936 
	C97.485664,1133.875000 102.701523,1132.660400 108.033951,1132.920532 
	C107.883072,1143.116211 107.492332,1152.380371 107.380363,1161.647827 
	C107.104820,1184.452759 106.957458,1207.259277 106.601303,1230.931519 
	C106.826393,1237.761597 107.435539,1243.720703 107.554169,1249.689575 
	C108.314903,1287.966553 112.425362,1325.938110 117.973259,1363.768188 
	C119.654488,1375.232056 122.023071,1386.595215 124.037262,1398.823242 
	C124.817024,1404.878784 125.242233,1410.213989 126.518776,1415.336792 
	C135.650131,1451.980835 144.405899,1488.732910 154.431152,1525.133911 
	C159.607681,1543.929810 167.137177,1562.077637 173.665894,1581.213989 
	C174.448105,1584.604614 175.167953,1587.299316 175.065048,1590.109009 
	C170.014175,1590.815918 165.788651,1591.898926 161.557465,1591.921387 
	C130.995224,1592.084351 100.431847,1592.032715 69.868828,1592.049072 
z"/>
<path fill="#E8E8E8" opacity="1.000000" stroke="none" 
	d="
M2338.113037,815.768738 
	C2344.154053,834.335693 2350.658203,852.766907 2356.146484,871.495850 
	C2370.813477,921.543701 2381.677002,972.488464 2389.442627,1024.022095 
	C2393.438721,1050.538696 2395.402832,1077.360107 2398.400635,1104.030884 
	C2398.601562,1105.817383 2399.782471,1107.493652 2401.253906,1108.610596 
	C2402.000000,1129.375122 2402.000000,1150.750244 2401.153809,1173.083862 
	C2396.089111,1174.694702 2391.885742,1175.750977 2387.648193,1175.912354 
	C2379.706055,1176.215088 2371.743896,1176.000122 2363.790039,1176.000000 
	C2347.219482,1176.000000 2330.647949,1175.910278 2314.078613,1176.049561 
	C2308.593994,1176.095703 2304.295898,1175.553833 2303.541748,1168.595215 
	C2303.356201,1166.885010 2299.992432,1165.519043 2297.954590,1163.141846 
	C2297.282227,1155.352539 2296.761475,1148.415039 2296.205811,1141.480347 
	C2294.963135,1125.967651 2293.952148,1110.430664 2292.354492,1094.954346 
	C2291.444092,1086.137817 2289.331787,1077.451660 2288.190430,1068.651001 
	C2287.130615,1060.475952 2286.641357,1052.227051 2285.972168,1043.160645 
	C2285.962891,1040.983643 2286.038330,1039.625366 2285.778809,1038.334351 
	C2279.376709,1006.485291 2273.259033,974.573853 2266.360596,942.832214 
	C2263.343994,928.952087 2258.717773,915.421875 2254.734375,900.922363 
	C2254.106201,897.527588 2253.813965,894.861084 2252.987305,892.371887 
	C2245.491943,869.800110 2237.884521,847.265442 2230.359619,824.703430 
	C2229.214355,821.269165 2228.322021,817.750610 2228.143066,814.261353 
	C2235.097656,815.500122 2241.208008,817.740845 2247.348389,817.826721 
	C2275.187012,818.216248 2303.034424,818.052490 2330.877930,817.901062 
	C2333.293457,817.887939 2335.701416,816.511780 2338.113037,815.768738 
z"/>
<path fill="#E4E4E4" opacity="1.000000" stroke="none" 
	d="
M2298.090088,1163.994873 
	C2299.992432,1165.519043 2303.356201,1166.885010 2303.541748,1168.595215 
	C2304.295898,1175.553833 2308.593994,1176.095703 2314.078613,1176.049561 
	C2330.647949,1175.910278 2347.219482,1176.000000 2363.790039,1176.000000 
	C2371.743896,1176.000122 2379.706055,1176.215088 2387.648193,1175.912354 
	C2391.885742,1175.750977 2396.089111,1174.694702 2401.153809,1174.021240 
	C2402.000000,1214.041748 2402.000000,1254.083618 2402.000000,1295.062744 
	C2398.196289,1294.409180 2398.646973,1297.634644 2398.456299,1299.437866 
	C2397.625000,1307.302734 2397.123779,1315.202271 2396.315918,1323.070068 
	C2395.037842,1335.519653 2393.610596,1347.953979 2391.114746,1361.187256 
	C2380.096191,1361.319946 2370.216797,1360.262085 2360.321777,1360.087402 
	C2342.703613,1359.776489 2325.076172,1360.000122 2307.452637,1360.000000 
	C2295.688721,1360.000000 2295.688721,1359.999878 2288.153564,1353.329102 
	C2287.984131,1351.784180 2287.908936,1350.899414 2288.076660,1349.229370 
	C2290.176270,1333.019531 2292.346436,1317.624512 2293.795898,1302.161743 
	C2295.092285,1288.327393 2295.934814,1274.429321 2296.367920,1260.540283 
	C2297.058594,1238.378662 2297.243164,1216.201172 2297.793945,1193.107422 
	C2297.993896,1182.787842 2298.041992,1173.391357 2298.090088,1163.994873 
z"/>
<path fill="#F4F4F3" opacity="1.000000" stroke="none" 
	d="
M359.427612,350.387054 
	C360.543762,355.103851 364.921570,353.968292 367.749786,354.725433 
	C371.199493,355.648865 374.903870,355.940918 378.499451,355.949768 
	C412.670227,356.033936 446.842072,356.122650 481.011780,355.913635 
	C489.555786,355.861389 498.093262,354.741119 507.181274,354.753601 
	C504.243774,358.423676 500.707886,361.395630 497.282440,364.489807 
	C482.109894,378.194855 466.969055,391.934967 451.239777,406.005859 
	C413.526245,441.752380 378.128265,478.799469 346.344635,519.115601 
	C331.750092,537.628235 318.295105,557.039246 303.870972,576.563904 
	C286.576447,603.409058 269.119965,629.365662 253.086945,656.173645 
	C240.297348,677.558411 229.242844,699.980835 216.585678,721.957275 
	C204.528641,722.647949 193.311676,723.668457 182.077682,723.915955 
	C166.778915,724.252991 151.461136,724.261536 136.163116,723.908264 
	C125.928505,723.671936 115.714058,722.562134 105.490585,721.843201 
	C109.350662,712.689209 112.915627,703.397400 117.117256,694.403015 
	C152.241165,619.213013 194.854691,548.483582 244.616211,482.101227 
	C269.109711,449.426636 295.018555,417.884338 323.185913,388.257385 
	C335.088654,375.737762 346.929626,363.159393 359.427612,350.387054 
z"/>
<path fill="#EBEBEB" opacity="1.000000" stroke="none" 
	d="
M104.934494,722.257080 
	C115.714058,722.562134 125.928505,723.671936 136.163116,723.908264 
	C151.461136,724.261536 166.778915,724.252991 182.077682,723.915955 
	C193.311676,723.668457 204.528641,722.647949 216.459656,722.629150 
	C210.804291,737.529053 204.442474,751.771729 197.698166,766.612549 
	C177.448074,811.565735 161.358398,857.291016 148.036514,903.995422 
	C144.672699,915.788452 142.136322,927.817444 138.827606,940.341309 
	C137.527206,944.477783 136.529007,947.990784 135.726471,951.547852 
	C132.604294,965.386108 129.501022,979.228821 126.475708,993.088501 
	C124.328407,1002.925720 122.034271,1012.743896 120.324043,1022.659912 
	C118.549988,1032.946045 117.185326,1043.315918 116.031128,1053.692505 
	C114.538582,1067.110840 113.432144,1080.572266 111.960236,1094.823730 
	C110.480995,1107.751831 109.200958,1119.871094 107.920929,1131.990479 
	C102.701523,1132.660400 97.485664,1133.875000 92.262108,1133.908936 
	C64.359695,1134.090942 36.455364,1133.978027 7.664237,1133.971924 
	C7.328676,1122.414551 7.635258,1110.833740 8.510337,1099.295898 
	C9.206712,1090.114258 10.459255,1080.966553 11.706873,1071.836792 
	C14.951900,1048.090332 18.327686,1024.361694 21.655785,1000.626648 
	C27.714382,957.418335 38.604164,915.277466 50.310722,873.358032 
	C64.696114,821.846069 83.016418,771.701965 104.934494,722.257080 
z"/>
<path fill="#D0D1D1" opacity="1.000000" stroke="none" 
	d="
M827.993591,2234.894775 
	C822.883850,2235.929932 817.776855,2237.849365 812.663879,2237.865723 
	C748.553467,2238.070557 684.442200,2237.980225 620.331177,2238.046387 
	C616.192139,2238.050537 611.508118,2236.667969 608.095459,2241.909180 
	C595.439697,2235.725098 582.775757,2229.377441 570.955200,2221.726807 
	C548.004517,2206.872559 524.856567,2192.180176 503.016235,2175.787598 
	C472.515778,2152.895264 442.649933,2129.088379 413.448853,2104.557861 
	C393.379089,2087.698486 374.101532,2069.716064 355.900879,2050.854980 
	C330.547119,2024.580933 306.530823,1997.016357 282.199677,1968.591553 
	C285.164032,1963.007202 289.445282,1964.033447 293.311798,1964.027954 
	C327.196442,1963.979492 361.081818,1964.104004 394.965057,1963.882324 
	C399.792175,1963.850830 404.608917,1962.239746 409.967529,1961.644897 
	C436.662994,1986.627197 462.488251,2011.691040 489.118958,2035.867676 
	C502.633911,2048.137207 517.601196,2058.806885 532.254639,2070.769043 
	C558.171753,2090.557861 583.262878,2110.363037 610.338867,2127.604980 
	C642.422852,2148.035400 675.421753,2166.785156 709.224121,2184.068359 
	C729.861389,2194.620361 751.327148,2203.602295 772.662659,2212.723389 
	C790.927612,2220.531982 809.536682,2227.535400 827.993591,2234.894775 
z"/>
<path fill="#D8D8D8" opacity="1.000000" stroke="none" 
	d="
M409.430481,1961.359619 
	C404.608917,1962.239746 399.792175,1963.850830 394.965057,1963.882324 
	C361.081818,1964.104004 327.196442,1963.979492 293.311798,1964.027954 
	C289.445282,1964.033447 285.164032,1963.007202 282.088531,1967.935303 
	C271.162231,1956.067871 260.059814,1943.856079 250.144806,1930.746216 
	C214.123001,1883.117432 181.607376,1833.138672 152.741821,1780.871826 
	C123.655937,1728.206421 98.886986,1673.510742 78.161270,1617.009277 
	C75.307816,1609.230225 72.619476,1601.390503 69.861771,1592.813965 
	C100.431847,1592.032715 130.995224,1592.084351 161.557465,1591.921387 
	C165.788651,1591.898926 170.014175,1590.815918 175.486679,1590.696899 
	C193.462570,1634.100342 211.930725,1676.254639 233.717804,1716.880981 
	C241.214493,1730.860107 249.475952,1744.429199 257.598633,1758.870972 
	C263.856506,1769.815674 269.617859,1780.257080 276.013977,1790.294067 
	C287.328735,1808.049561 298.581421,1825.874756 310.698242,1843.080444 
	C322.226227,1859.449707 334.629913,1875.218628 347.028412,1890.952148 
	C354.325165,1900.211548 362.361816,1908.887939 370.280975,1918.471680 
	C383.474335,1933.197754 396.452423,1947.278687 409.430481,1961.359619 
z"/>
<path fill="#F2F2F2" opacity="1.000000" stroke="none" 
	d="
M2338.104736,815.026611 
	C2335.701416,816.511780 2333.293457,817.887939 2330.877930,817.901062 
	C2303.034424,818.052490 2275.187012,818.216248 2247.348389,817.826721 
	C2241.208008,817.740845 2235.097656,815.500122 2227.718750,813.730469 
	C2218.222168,794.148987 2209.980713,775.088684 2201.758789,755.306274 
	C2183.745850,713.881897 2163.173584,674.488525 2139.728516,636.662231 
	C2126.992432,616.113647 2113.195801,596.222351 2099.666992,575.392944 
	C2079.312012,545.839844 2058.015869,517.806885 2034.650635,491.417938 
	C2019.899780,474.757874 2004.815186,458.382874 1989.539185,442.201965 
	C1980.902344,433.053436 1971.575317,424.556396 1962.204346,415.171021 
	C1956.934082,408.696655 1949.314087,405.405273 1945.990234,398.002747 
	C1950.114136,397.133453 1954.040771,395.575348 1958.480835,397.609161 
	C1960.696045,398.623871 1963.696777,397.988983 1966.342163,397.990082 
	C2001.768921,398.004761 2037.196289,398.090820 2072.622070,397.900024 
	C2077.819580,397.872040 2083.009521,396.505127 2089.176270,395.602783 
	C2124.565186,431.967316 2155.351562,471.414276 2184.286865,512.342590 
	C2219.827393,562.614624 2251.176514,615.406738 2278.356689,670.631348 
	C2285.937988,686.035095 2292.303955,702.040283 2299.124756,717.814087 
	C2306.342041,734.504517 2313.612793,751.175476 2320.519531,767.994934 
	C2324.827881,778.486633 2328.482666,789.246094 2332.476807,799.867981 
	C2334.292236,804.695190 2336.219727,809.480225 2338.104736,815.026611 
z"/>
<path fill="#D5D5D5" opacity="1.000000" stroke="none" 
	d="
M1941.696045,2147.414307 
	C1936.777466,2141.836426 1930.396484,2141.998047 1924.064087,2141.998535 
	C1879.273193,2142.000977 1834.482056,2142.058838 1789.691650,2141.910156 
	C1785.170776,2141.895264 1780.653931,2140.628174 1775.811523,2139.093994 
	C1806.143799,2119.233643 1835.677246,2098.606201 1864.852051,2076.400879 
	C1867.018433,2074.831543 1868.572144,2073.442383 1870.580200,2071.950195 
	C1871.640747,2071.567627 1872.029907,2071.105225 1872.850586,2070.226318 
	C1874.851440,2069.029541 1876.241455,2068.115234 1877.550171,2067.096191 
	C1925.639038,2029.658813 1969.983643,1988.143433 2011.087158,1943.215332 
	C2026.076782,1926.830566 2039.822876,1909.307861 2054.728516,1891.971680 
	C2092.621338,1845.609863 2126.177002,1797.066895 2154.027832,1744.688965 
	C2158.201660,1736.839355 2162.429932,1729.017456 2166.740723,1721.242432 
	C2169.922607,1715.503418 2173.280029,1709.861816 2177.051758,1703.720703 
	C2180.390869,1698.180908 2183.237305,1693.097168 2187.015625,1688.007080 
	C2221.048340,1688.000366 2254.148926,1687.950195 2287.249023,1688.069092 
	C2290.993164,1688.082520 2295.337646,1686.487061 2298.235840,1690.590576 
	C2289.658936,1709.269897 2281.726562,1728.280640 2272.339844,1746.543945 
	C2260.809814,1768.977417 2248.432861,1791.000244 2235.766113,1812.819946 
	C2212.381348,1853.102905 2186.214844,1891.554688 2157.940674,1928.574585 
	C2128.460205,1967.174438 2096.835205,2003.868774 2062.951660,2038.718262 
	C2025.155151,2077.592773 1985.002808,2113.726562 1941.696045,2147.414307 
z"/>
<path fill="#DFDFDF" opacity="1.000000" stroke="none" 
	d="
M2298.798828,1690.132812 
	C2295.337646,1686.487061 2290.993164,1688.082520 2287.249023,1688.069092 
	C2254.148926,1687.950195 2221.048340,1688.000366 2187.106689,1687.293457 
	C2195.467285,1666.034790 2204.910400,1645.587280 2213.815430,1624.907959 
	C2227.961914,1592.057007 2239.018066,1558.078857 2250.194092,1523.375366 
	C2263.074463,1483.142944 2272.552002,1442.812866 2279.999268,1401.996460 
	C2282.913574,1386.024170 2285.507812,1369.993408 2288.247803,1353.989258 
	C2295.688721,1359.999878 2295.688721,1360.000000 2307.452637,1360.000000 
	C2325.076172,1360.000122 2342.703613,1359.776489 2360.321777,1360.087402 
	C2370.216797,1360.262085 2380.096191,1361.319946 2390.817871,1361.984375 
	C2388.988525,1380.000610 2386.826660,1398.103638 2383.566650,1416.006958 
	C2372.790039,1475.189453 2358.351074,1533.496460 2338.109619,1590.168457 
	C2326.141846,1623.676025 2312.339355,1656.528198 2298.798828,1690.132812 
z"/>
<path fill="#A6DD95" opacity="1.000000" stroke="none" 
	d="
M1945.386963,397.718658 
	C1949.314087,405.405273 1956.934082,408.696655 1961.384521,415.237671 
	C1959.927002,415.813690 1958.506348,416.123383 1958.007202,415.582611 
	C1951.751465,408.805603 1943.601318,409.987976 1935.679810,409.988190 
	C1447.259399,410.001343 958.838989,410.000031 470.418610,409.999451 
	C467.420135,409.999451 464.284393,410.544769 461.458771,409.843750 
	C458.105377,409.011841 455.018890,407.103973 451.816742,405.662384 
	C466.969055,391.934967 482.109894,378.194855 497.282440,364.489807 
	C500.707886,361.395630 504.243774,358.423676 508.108826,354.831146 
	C519.558655,345.913055 530.610229,337.534882 541.701965,329.210327 
	C568.997681,308.724487 596.824585,289.018829 627.492737,272.244324 
	C630.231934,273.070740 631.830444,273.831055 633.369385,273.725159 
	C639.627441,273.294586 645.867065,272.076111 652.113708,272.074677 
	C1021.383484,271.991180 1390.653198,272.000061 1759.922974,271.999023 
	C1762.922363,271.999023 1765.955566,272.250824 1768.908813,271.877869 
	C1770.718506,271.649353 1772.405762,270.452454 1774.148071,269.690491 
	C1793.168945,281.884216 1812.525391,293.589844 1831.135376,306.381561 
	C1862.136108,327.690186 1891.601562,351.056671 1920.161621,375.541809 
	C1928.498047,382.688843 1936.583252,390.128845 1945.386963,397.718658 
z"/>
<path fill="#B1E098" opacity="1.000000" stroke="none" 
	d="
M1773.721680,269.176697 
	C1772.405762,270.452454 1770.718506,271.649353 1768.908813,271.877869 
	C1765.955566,272.250824 1762.922363,271.999023 1759.922974,271.999023 
	C1390.653198,272.000061 1021.383484,271.991180 652.113708,272.074677 
	C645.867065,272.076111 639.627441,273.294586 633.369385,273.725159 
	C631.830444,273.831055 630.231934,273.070740 628.170654,272.036804 
	C639.545715,264.042999 651.171326,256.294495 663.315918,249.469482 
	C732.335999,210.681641 804.599609,179.326080 880.351379,156.236526 
	C925.515686,142.470200 971.244568,130.861450 1018.001099,123.817627 
	C1045.239990,119.714127 1072.522705,115.863327 1099.848511,112.394005 
	C1111.368774,110.931358 1123.040527,110.423691 1134.661743,110.043755 
	C1161.268555,109.173882 1187.883545,108.316498 1214.500854,108.070419 
	C1247.113037,107.768921 1279.572998,110.499283 1312.026733,113.634842 
	C1345.119385,116.832138 1377.916748,121.768410 1410.560425,127.915810 
	C1449.474609,135.244095 1487.768066,145.040222 1525.593140,156.723404 
	C1578.791382,173.155075 1630.397217,193.561417 1680.485352,217.907318 
	C1712.249146,233.346527 1743.317993,249.989716 1773.721680,269.176697 
z"/>
<path fill="#10A574" opacity="1.000000" stroke="none" 
	d="
M1864.239502,2076.580811 
	C1835.677246,2098.606201 1806.143799,2119.233643 1774.937256,2138.725586 
	C1759.035278,2147.872803 1743.781372,2156.718506 1728.316406,2165.178467 
	C1633.641113,2216.970459 1533.557861,2254.156982 1427.898315,2276.290283 
	C1380.948486,2286.125488 1333.612549,2292.943359 1285.754761,2296.585693 
	C1246.516357,2299.572266 1207.261230,2300.916260 1167.972778,2299.516357 
	C1058.181885,2295.604980 951.120056,2276.488525 847.130737,2240.731445 
	C841.254395,2238.711182 835.235046,2237.106445 828.637939,2235.101562 
	C809.536682,2227.535400 790.927612,2220.531982 772.662659,2212.723389 
	C751.327148,2203.602295 729.861389,2194.620361 709.224121,2184.068359 
	C675.421753,2166.785156 642.422852,2148.035400 610.338867,2127.604980 
	C583.262878,2110.363037 558.171753,2090.557861 532.385254,2069.971191 
	C534.106140,2067.092285 535.834595,2064.938965 538.026794,2064.239990 
	C540.452637,2063.466309 543.302856,2064.002686 545.968201,2064.002686 
	C983.855896,2063.999756 1421.743652,2064.000000 1859.631348,2064.001465 
	C1861.963867,2064.001465 1864.301758,2064.127197 1866.627930,2064.010742 
	C1871.316162,2063.776123 1872.076782,2066.815430 1872.201904,2070.459961 
	C1872.029907,2071.105225 1871.640747,2071.567627 1869.827148,2071.939209 
	C1865.559448,2072.006836 1863.998413,2073.426270 1864.239502,2076.580811 
z"/>
<path fill="#47BA80" opacity="1.000000" stroke="none" 
	d="
M173.603561,1580.518188 
	C167.137177,1562.077637 159.607681,1543.929810 154.431152,1525.133911 
	C144.405899,1488.732910 135.650131,1451.980835 126.518776,1415.336792 
	C125.242233,1410.213989 124.817024,1404.878784 124.860733,1398.708740 
	C130.629913,1397.183594 135.535858,1396.076416 140.442261,1396.074219 
	C342.615631,1395.987549 544.789001,1395.999878 746.962402,1396.001221 
	C749.626892,1396.001221 752.334656,1395.733154 754.940979,1396.127441 
	C756.747864,1396.400635 758.415039,1397.598145 759.826660,1399.029053 
	C751.939392,1417.745361 746.824097,1436.587036 741.833984,1455.478516 
	C735.827515,1478.217896 729.249390,1500.814453 723.675781,1523.657593 
	C719.126343,1542.303711 715.689392,1561.221436 710.945801,1579.891968 
	C705.560425,1579.176758 700.989014,1578.078979 696.416504,1578.074707 
	C592.153320,1577.977661 487.890045,1578.000000 383.626801,1578.000000 
	C317.671143,1578.000000 251.715424,1577.969727 185.759918,1578.072632 
	C181.650146,1578.078979 176.976715,1576.401367 173.603561,1580.518188 
z"/>
<path fill="#57BF84" opacity="1.000000" stroke="none" 
	d="
M760.144592,1398.382690 
	C758.415039,1397.598145 756.747864,1396.400635 754.940979,1396.127441 
	C752.334656,1395.733154 749.626892,1396.001221 746.962402,1396.001221 
	C544.789001,1395.999878 342.615631,1395.987549 140.442261,1396.074219 
	C135.535858,1396.076416 130.629913,1397.183594 124.900291,1397.889893 
	C122.023071,1386.595215 119.654488,1375.232056 117.973259,1363.768188 
	C112.425362,1325.938110 108.314903,1287.966553 107.554169,1249.689575 
	C107.435539,1243.720703 106.826393,1237.761597 107.476929,1230.912720 
	C215.309357,1230.018311 322.108917,1230.013062 428.908478,1229.986694 
	C433.562958,1229.985474 438.217346,1229.790039 443.278931,1230.206787 
	C453.436554,1251.354980 466.142517,1269.986450 481.671936,1286.678101 
	C517.560486,1325.252686 561.061462,1353.256104 607.625732,1376.909668 
	C617.280090,1381.813965 627.667908,1381.807007 637.715637,1378.071411 
	C652.765686,1372.475952 661.763184,1361.300537 663.668396,1345.491211 
	C665.684631,1328.760376 658.675781,1315.574463 644.590027,1306.502319 
	C637.892029,1302.188477 630.598328,1298.807983 623.641602,1294.885620 
	C597.758972,1280.293213 572.859802,1264.170898 551.565308,1243.325317 
	C541.927185,1233.890503 534.039185,1222.667969 526.035889,1211.843018 
	C529.450806,1206.071533 534.262268,1205.943115 539.458496,1205.947021 
	C636.561218,1206.019165 733.664001,1205.975586 830.766663,1206.089722 
	C834.630066,1206.094238 838.491943,1207.415405 842.218994,1208.847412 
	C836.853760,1220.996460 831.532227,1232.380615 826.411499,1243.854126 
	C810.988708,1278.410278 795.428711,1312.907715 780.362122,1347.619019 
	C773.113403,1364.319092 766.852722,1381.447998 760.144592,1398.382690 
z"/>
<path fill="#38B47D" opacity="1.000000" stroke="none" 
	d="
M173.665924,1581.213989 
	C176.976715,1576.401367 181.650146,1578.078979 185.759918,1578.072632 
	C251.715424,1577.969727 317.671143,1578.000000 383.626801,1578.000000 
	C487.890045,1578.000000 592.153320,1577.977661 696.416504,1578.074707 
	C700.989014,1578.078979 705.560425,1579.176758 711.011597,1580.717773 
	C702.991638,1639.824951 700.432190,1697.861572 714.129944,1755.692871 
	C708.472534,1755.872681 703.817444,1755.991455 699.162292,1755.991821 
	C562.123047,1756.001709 425.083801,1755.953491 288.044739,1756.094116 
	C277.825104,1756.104614 267.606873,1757.456909 257.388000,1758.185547 
	C249.475952,1744.429199 241.214493,1730.860107 233.717804,1716.880981 
	C211.930725,1676.254639 193.462570,1634.100342 176.309418,1590.582031 
	C175.167953,1587.299316 174.448105,1584.604614 173.665924,1581.213989 
z"/>
<path fill="#62C386" opacity="1.000000" stroke="none" 
	d="
M442.871796,1229.685181 
	C438.217346,1229.790039 433.562958,1229.985474 428.908478,1229.986694 
	C322.108917,1230.013062 215.309357,1230.018311 107.634171,1230.046265 
	C106.957458,1207.259277 107.104820,1184.452759 107.380363,1161.647827 
	C107.492332,1152.380371 107.883072,1143.116211 108.033951,1132.920532 
	C109.200958,1119.871094 110.480995,1107.751831 112.815674,1094.819336 
	C131.748550,1093.337402 149.625381,1092.138550 167.505264,1092.091187 
	C247.018600,1091.880737 326.532837,1092.000000 406.046722,1092.000000 
	C414.031372,1092.000000 422.016479,1091.950073 430.000580,1092.016357 
	C436.768280,1092.072632 443.184723,1093.258911 448.063934,1099.086426 
	C446.648102,1102.471069 445.302032,1105.143433 444.076843,1107.870117 
	C432.671692,1133.253174 427.670074,1159.530640 431.527435,1187.447876 
	C433.551208,1202.094727 438.321533,1215.816162 442.871796,1229.685181 
z"/>
<path fill="#7DCD8C" opacity="1.000000" stroke="none" 
	d="
M2201.739014,756.028442 
	C2209.980713,775.088684 2218.222168,794.148987 2226.888184,813.740112 
	C2228.322021,817.750610 2229.214355,821.269165 2230.359619,824.703430 
	C2237.884521,847.265442 2245.491943,869.800110 2252.987305,892.371887 
	C2253.813965,894.861084 2254.106201,897.527588 2253.719727,901.002686 
	C2248.131836,901.929016 2243.470703,901.995483 2238.809570,901.995544 
	C1949.788330,902.000488 1660.766968,901.999512 1371.745728,902.005066 
	C1368.417847,902.005127 1365.019165,901.700134 1361.794189,902.297180 
	C1360.349976,902.564453 1359.254028,904.711914 1357.116699,906.085388 
	C1354.240723,906.075195 1352.239014,906.076050 1350.256348,905.882935 
	C1318.226318,902.763611 1286.245239,898.972717 1254.157349,896.664856 
	C1222.694580,894.401917 1191.123413,893.643860 1159.600220,892.219360 
	C1156.795288,892.092590 1153.992432,891.921692 1149.434937,891.677307 
	C1158.318481,881.240234 1165.829102,872.089294 1173.696899,863.256531 
	C1183.187744,852.601562 1192.800903,842.042419 1202.688965,831.757080 
	C1216.242676,817.658936 1230.104614,803.857117 1244.677979,790.054443 
	C1250.423218,790.787048 1255.324585,791.918640 1260.226929,791.922974 
	C1372.394287,792.023010 1484.561646,792.039490 1596.729004,791.910156 
	C1604.112549,791.901672 1611.183594,792.231873 1617.773193,796.809387 
	C1615.436401,809.472168 1612.295288,821.242859 1610.829224,833.218750 
	C1609.035278,847.872131 1610.391235,861.414185 1622.940186,872.743164 
	C1648.914551,896.192383 1685.557373,879.604431 1690.597168,849.755188 
	C1695.849609,818.645630 1700.102661,787.480896 1703.253662,756.001099 
	C1709.637085,755.310486 1715.201660,754.087219 1720.766968,754.083069 
	C1862.542603,753.977722 2004.318481,753.950073 2146.094238,754.060730 
	C2164.650635,754.075195 2183.291260,752.593689 2201.739014,756.028442 
z"/>
<path fill="#72C98A" opacity="1.000000" stroke="none" 
	d="
M1358.000000,906.006226 
	C1359.254028,904.711914 1360.349976,902.564453 1361.794189,902.297180 
	C1365.019165,901.700134 1368.417847,902.005127 1371.745728,902.005066 
	C1660.766968,901.999512 1949.788330,902.000488 2238.809570,901.995544 
	C2243.470703,901.995483 2248.131836,901.929016 2253.807617,901.813110 
	C2258.717773,915.421875 2263.343994,928.952087 2266.360596,942.832214 
	C2273.259033,974.573853 2279.376709,1006.485291 2285.778809,1038.334351 
	C2286.038330,1039.625366 2285.962891,1040.983643 2285.135254,1043.134521 
	C2278.320801,1043.305542 2272.415771,1042.087524 2266.509521,1042.083008 
	C2129.270020,1041.975708 1992.030396,1041.999878 1854.790771,1042.000366 
	C1852.459106,1042.000366 1850.124023,1042.087646 1847.796265,1041.992676 
	C1842.346191,1041.770264 1839.695557,1044.260376 1839.358643,1049.618286 
	C1791.112915,1020.861145 1740.448853,998.944946 1688.258057,980.422119 
	C1632.055542,960.475586 1574.653198,944.597168 1516.243408,932.769714 
	C1476.518066,924.725647 1436.392822,918.646851 1396.422119,911.831848 
	C1383.654785,909.654968 1370.809570,907.935181 1358.000000,906.006226 
z"/>
<path fill="#65C587" opacity="1.000000" stroke="none" 
	d="
M1840.025879,1049.770874 
	C1839.695557,1044.260376 1842.346191,1041.770264 1847.796265,1041.992676 
	C1850.124023,1042.087646 1852.459106,1042.000366 1854.790771,1042.000366 
	C1992.030396,1041.999878 2129.270020,1041.975708 2266.509521,1042.083008 
	C2272.415771,1042.087524 2278.320801,1043.305542 2285.063477,1043.984497 
	C2286.641357,1052.227051 2287.130615,1060.475952 2288.190430,1068.651001 
	C2289.331787,1077.451660 2291.444092,1086.137817 2292.354492,1094.954346 
	C2293.952148,1110.430664 2294.963135,1125.967651 2296.205811,1141.480347 
	C2296.761475,1148.415039 2297.282227,1155.352539 2297.954590,1163.141846 
	C2298.041992,1173.391357 2297.993896,1182.787842 2296.886230,1193.099854 
	C2193.059082,1194.010132 2090.291260,1193.975342 1987.523682,1194.086304 
	C1982.296265,1194.091919 1977.070068,1195.351685 1971.356201,1195.503906 
	C1967.638306,1186.651001 1964.887451,1178.096069 1961.094360,1170.031494 
	C1944.151123,1134.009155 1916.723267,1106.737305 1886.095703,1082.498291 
	C1871.344482,1070.824219 1855.419434,1060.633423 1840.025879,1049.770874 
z"/>
<path fill="#4CBC81" opacity="1.000000" stroke="none" 
	d="
M2288.153564,1353.329102 
	C2285.507812,1369.993408 2282.913574,1386.024170 2279.999268,1401.996460 
	C2272.552002,1442.812866 2263.074463,1483.142944 2249.381104,1523.252686 
	C2243.277344,1523.180664 2238.375977,1522.076416 2233.473877,1522.074219 
	C2042.747681,1521.986816 1852.021606,1521.976074 1661.295410,1522.096313 
	C1654.405640,1522.100708 1647.516602,1523.524536 1640.356934,1523.611328 
	C1638.718750,1515.776855 1637.386230,1508.610962 1635.977539,1501.459961 
	C1624.112305,1441.233276 1608.057129,1382.131714 1589.047363,1323.910889 
	C1595.501831,1320.795410 1601.499023,1319.858765 1607.997192,1319.894409 
	C1646.884521,1320.107544 1685.773682,1320.000000 1724.662231,1320.000000 
	C1752.914551,1320.000000 1781.166870,1320.024536 1809.419189,1319.979858 
	C1815.249146,1319.970581 1820.777954,1320.416870 1823.769531,1326.799072 
	C1810.449951,1334.556152 1797.686157,1342.133911 1784.431885,1348.725220 
	C1772.820435,1354.499634 1760.560181,1358.952515 1748.761108,1364.369385 
	C1728.096680,1373.856323 1719.203735,1395.524170 1727.312012,1415.911377 
	C1735.320312,1436.047241 1757.294189,1446.052490 1778.481323,1438.214478 
	C1814.203979,1424.998901 1848.626587,1408.832642 1879.806152,1386.817383 
	C1896.602661,1374.957764 1911.904175,1360.980591 1928.733154,1347.995850 
	C1935.821533,1348.688599 1942.056274,1349.909546 1948.292480,1349.916138 
	C2061.472656,1350.036133 2174.653076,1350.009766 2287.833496,1350.014648 
	C2287.908936,1350.899414 2287.984131,1351.784180 2288.153564,1353.329102 
z"/>
<path fill="#59C084" opacity="1.000000" stroke="none" 
	d="
M2288.076660,1349.229370 
	C2174.653076,1350.009766 2061.472656,1350.036133 1948.292480,1349.916138 
	C1942.056274,1349.909546 1935.821533,1348.688599 1928.998657,1347.377197 
	C1932.504883,1341.931274 1936.763550,1337.271118 1940.665161,1332.329102 
	C1964.930176,1301.593140 1978.824951,1267.234253 1976.151733,1227.455811 
	C1975.444336,1216.930664 1973.318115,1206.501099 1971.843384,1196.027588 
	C1977.070068,1195.351685 1982.296265,1194.091919 1987.523682,1194.086304 
	C2090.291260,1193.975342 2193.059082,1194.010132 2296.734375,1194.022827 
	C2297.243164,1216.201172 2297.058594,1238.378662 2296.367920,1260.540283 
	C2295.934814,1274.429321 2295.092285,1288.327393 2293.795898,1302.161743 
	C2292.346436,1317.624512 2290.176270,1333.019531 2288.076660,1349.229370 
z"/>
<path fill="#9AD893" opacity="1.000000" stroke="none" 
	d="
M451.239777,406.005859 
	C455.018890,407.103973 458.105377,409.011841 461.458771,409.843750 
	C464.284393,410.544769 467.420135,409.999451 470.418610,409.999451 
	C958.838989,410.000031 1447.259399,410.001343 1935.679810,409.988190 
	C1943.601318,409.987976 1951.751465,408.805603 1958.007202,415.582611 
	C1958.506348,416.123383 1959.927002,415.813690 1961.739258,415.832611 
	C1971.575317,424.556396 1980.902344,433.053436 1989.539185,442.201965 
	C2004.815186,458.382874 2019.899780,474.757874 2034.650635,491.417938 
	C2058.015869,517.806885 2079.312012,545.839844 2098.740479,575.384094 
	C1956.411499,576.011230 1814.798462,576.030945 1673.185669,575.910339 
	C1667.330322,575.905334 1662.010132,576.619324 1656.747559,579.847656 
	C1644.012451,566.125122 1630.231079,554.712036 1614.177856,546.174316 
	C1583.019653,529.603333 1549.467651,526.402954 1515.292603,530.538940 
	C1474.883057,535.429443 1437.402954,550.052307 1401.562500,568.971252 
	C1388.342651,575.949585 1375.255859,583.180176 1362.045410,589.441895 
	C1361.324829,582.232971 1356.361450,584.069580 1352.786743,584.065247 
	C1280.644043,583.978516 1208.501099,584.000183 1136.358276,584.001770 
	C1135.028564,584.001831 1133.698242,584.002563 1132.369141,584.038086 
	C1128.390747,584.144409 1126.276611,586.224060 1125.312256,589.901978 
	C1121.778931,587.414856 1118.837036,585.230774 1115.969727,582.952576 
	C1082.739380,556.548889 1047.741455,532.922668 1008.476440,516.342957 
	C973.101318,501.405731 936.690308,492.236725 897.733093,497.855316 
	C868.877747,502.016937 843.669922,513.515259 821.845276,532.828857 
	C807.193298,545.795044 796.417175,561.722900 785.249512,577.670166 
	C781.228577,576.891541 777.976135,576.056824 774.723450,576.055786 
	C617.923401,576.006226 461.123383,576.028564 304.323364,576.042847 
	C318.295105,557.039246 331.750092,537.628235 346.344635,519.115601 
	C378.128265,478.799469 413.526245,441.752380 451.239777,406.005859 
z"/>
<path fill="#8BD38F" opacity="1.000000" stroke="none" 
	d="
M303.870972,576.563904 
	C461.123383,576.028564 617.923401,576.006226 774.723450,576.055786 
	C777.976135,576.056824 781.228577,576.891541 785.141357,578.380615 
	C779.965942,593.888428 772.983154,608.009521 768.527222,622.887268 
	C758.468872,656.471069 753.950500,691.025635 753.855042,726.123535 
	C753.818909,739.429626 753.668457,752.735413 752.659790,766.031128 
	C567.193176,766.018738 382.636932,766.016541 198.080658,766.014343 
	C204.442474,751.771729 210.804291,737.529053 217.292130,722.614563 
	C229.242844,699.980835 240.297348,677.558411 253.086945,656.173645 
	C269.119965,629.365662 286.576447,603.409058 303.870972,576.563904 
z"/>
<path fill="#7BCD8C" opacity="1.000000" stroke="none" 
	d="
M197.698181,766.612549 
	C382.636932,766.016541 567.193176,766.018738 752.812439,766.937500 
	C756.066040,820.194336 764.506714,871.744873 774.760437,923.609863 
	C747.775269,930.419128 721.867920,936.956421 695.923157,942.694946 
	C694.635681,940.630249 693.551819,938.570374 692.100464,938.266602 
	C689.225220,937.664917 686.147095,938.004211 683.152832,938.004089 
	C520.395081,937.999512 357.637329,937.944336 194.879700,938.076416 
	C176.325928,938.091431 157.773010,939.158691 139.219696,939.738037 
	C142.136322,927.817444 144.672699,915.788452 148.036514,903.995422 
	C161.358398,857.291016 177.448074,811.565735 197.698181,766.612549 
z"/>
<path fill="#6EC889" opacity="1.000000" stroke="none" 
	d="
M138.827606,940.341309 
	C157.773010,939.158691 176.325928,938.091431 194.879700,938.076416 
	C357.637329,937.944336 520.395081,937.999512 683.152832,938.004089 
	C686.147095,938.004211 689.225220,937.664917 692.100464,938.266602 
	C693.551819,938.570374 694.635681,940.630249 695.205994,942.978027 
	C673.089050,951.133728 651.350342,957.416687 630.279480,965.451172 
	C590.293091,980.697937 551.213623,998.020386 517.234558,1024.748901 
	C505.239624,1034.184448 493.781555,1044.332520 482.421417,1054.537231 
	C468.441559,1067.095337 458.573120,1082.973633 448.189728,1098.399292 
	C443.184723,1093.258911 436.768280,1092.072632 430.000580,1092.016357 
	C422.016479,1091.950073 414.031372,1092.000000 406.046722,1092.000000 
	C326.532837,1092.000000 247.018600,1091.880737 167.505264,1092.091187 
	C149.625381,1092.138550 131.748550,1093.337402 113.014877,1094.010620 
	C113.432144,1080.572266 114.538582,1067.110840 116.031128,1053.692505 
	C117.185326,1043.315918 118.549988,1032.946045 120.324043,1022.659912 
	C122.034271,1012.743896 124.328407,1002.925720 126.475708,993.088501 
	C129.501022,979.228821 132.604294,965.386108 135.726471,951.547852 
	C136.529007,947.990784 137.527206,944.477783 138.827606,940.341309 
z"/>
<path fill="#1FAB77" opacity="1.000000" stroke="none" 
	d="
M1872.850586,2070.226318 
	C1872.076782,2066.815430 1871.316162,2063.776123 1866.627930,2064.010742 
	C1864.301758,2064.127197 1861.963867,2064.001465 1859.631348,2064.001465 
	C1421.743652,2064.000000 983.855896,2063.999756 545.968201,2064.002686 
	C543.302856,2064.002686 540.452637,2063.466309 538.026794,2064.239990 
	C535.834595,2064.938965 534.106140,2067.092285 532.042480,2069.401855 
	C517.601196,2058.806885 502.633911,2048.137207 489.118958,2035.867676 
	C462.488251,2011.691040 436.662994,1986.627197 409.967560,1961.645020 
	C396.452423,1947.278687 383.474335,1933.197754 370.276978,1917.678467 
	C369.460815,1911.101440 372.522247,1908.834961 376.924744,1908.260986 
	C380.534027,1907.790527 384.239624,1908.007446 387.902557,1908.007324 
	C734.448486,1907.999390 1080.994385,1908.000244 1427.540283,1907.997803 
	C1430.872192,1907.997803 1434.303955,1908.432739 1437.496094,1907.755127 
	C1439.232544,1907.386597 1440.561890,1905.100342 1442.913818,1903.689331 
	C1446.039185,1904.108032 1448.330322,1904.492676 1450.611694,1904.928345 
	C1476.036621,1909.785889 1501.391357,1910.169678 1526.635132,1903.727173 
	C1542.894287,1899.577637 1557.545410,1891.865601 1572.310059,1883.987549 
	C1577.056641,1885.128540 1581.292725,1885.943359 1585.529175,1885.945190 
	C1737.178345,1886.010620 1888.827515,1886.000000 2040.476685,1886.001099 
	C2043.142944,1886.001099 2045.816040,1886.141235 2048.474121,1885.996948 
	C2053.076416,1885.746948 2054.120117,1888.524780 2054.136230,1892.304321 
	C2039.822876,1909.307861 2026.076782,1926.830566 2011.087158,1943.215332 
	C1969.983643,1988.143433 1925.639038,2029.658813 1877.550171,2067.096191 
	C1876.241455,2068.115234 1874.851440,2069.029541 1872.850586,2070.226318 
z"/>
<path fill="#2AAF7A" opacity="1.000000" stroke="none" 
	d="
M1442.074951,1903.679077 
	C1440.561890,1905.100342 1439.232544,1907.386597 1437.496094,1907.755127 
	C1434.303955,1908.432739 1430.872192,1907.997803 1427.540283,1907.997803 
	C1080.994385,1908.000244 734.448486,1907.999390 387.902557,1908.007324 
	C384.239624,1908.007446 380.534027,1907.790527 376.924744,1908.260986 
	C372.522247,1908.834961 369.460815,1911.101440 370.061707,1917.033203 
	C362.361816,1908.887939 354.325165,1900.211548 347.028412,1890.952148 
	C334.629913,1875.218628 322.226227,1859.449707 310.698242,1843.080444 
	C298.581421,1825.874756 287.328735,1808.049561 276.013977,1790.294067 
	C269.617859,1780.257080 263.856506,1769.815674 257.598633,1758.870850 
	C267.606873,1757.456909 277.825104,1756.104614 288.044739,1756.094116 
	C425.083801,1755.953491 562.123047,1756.001709 699.162292,1755.991821 
	C703.817444,1755.991455 708.472534,1755.872681 714.445618,1756.322266 
	C717.095886,1760.950806 718.917419,1764.978760 719.670898,1769.197632 
	C722.152588,1783.092773 729.736816,1794.696777 736.324829,1806.670532 
	C746.620911,1825.383789 762.341980,1838.989746 779.851135,1850.725708 
	C792.963135,1859.514282 807.105225,1865.969482 822.327393,1870.171997 
	C852.256836,1878.434814 882.281677,1877.403809 912.297729,1871.025757 
	C946.997742,1863.652588 979.463379,1850.337524 1010.625732,1833.564697 
	C1038.976196,1818.305420 1066.291260,1801.453247 1092.900146,1781.994263 
	C1133.435669,1782.002441 1173.031250,1781.954956 1212.626343,1782.031860 
	C1222.832642,1782.051636 1233.244019,1780.604370 1242.890503,1785.754272 
	C1244.213745,1786.460693 1246.165894,1785.989258 1248.455322,1786.327026 
	C1252.200684,1789.988281 1254.968262,1793.808838 1258.489746,1796.715942 
	C1285.354248,1818.893311 1311.248413,1842.401978 1342.375854,1858.829712 
	C1360.907349,1868.610107 1379.055908,1879.218384 1398.063599,1887.961182 
	C1412.161377,1894.445679 1427.364258,1898.527222 1442.074951,1903.679077 
z"/>
<path fill="#8BD38F" opacity="1.000000" stroke="none" 
	d="
M1657.275391,580.177673 
	C1662.010132,576.619324 1667.330322,575.905334 1673.185669,575.910339 
	C1814.798462,576.030945 1956.411499,576.011230 2098.950928,576.025757 
	C2113.195801,596.222351 2126.992432,616.113647 2139.728516,636.662231 
	C2163.173584,674.488525 2183.745850,713.881897 2201.758789,755.306274 
	C2183.291260,752.593689 2164.650635,754.075195 2146.094238,754.060730 
	C2004.318481,753.950073 1862.542603,753.977722 1720.766968,754.083069 
	C1715.201660,754.087219 1709.637085,755.310486 1703.102295,755.070801 
	C1702.269897,728.559387 1702.568970,702.963623 1698.062378,677.560181 
	C1693.436279,651.483154 1686.265503,626.343872 1672.510620,603.485718 
	C1667.728149,595.538330 1662.370361,587.937073 1657.275391,580.177673 
z"/>
<path fill="#3DB67E" opacity="1.000000" stroke="none" 
	d="
M1640.627197,1524.286865 
	C1647.516602,1523.524536 1654.405640,1522.100708 1661.295410,1522.096313 
	C1852.021606,1521.976074 2042.747681,1521.986816 2233.473877,1522.074219 
	C2238.375977,1522.076416 2243.277344,1523.180664 2248.992188,1523.893677 
	C2239.018066,1558.078857 2227.961914,1592.057007 2213.815430,1624.907959 
	C2204.910400,1645.587280 2195.467285,1666.034790 2186.174805,1687.299927 
	C2183.237305,1693.097168 2180.390869,1698.180908 2176.176758,1703.583984 
	C2170.573242,1703.269043 2166.337646,1702.081909 2162.101807,1702.079834 
	C1992.259033,1701.996826 1822.416138,1702.020996 1652.423096,1701.156982 
	C1652.733521,1688.696411 1653.552856,1677.111572 1653.591797,1665.524170 
	C1653.751221,1618.044067 1647.802979,1571.104736 1640.627197,1524.286865 
z"/>
<path fill="#2EB07A" opacity="1.000000" stroke="none" 
	d="
M1652.573364,1702.031494 
	C1822.416138,1702.020996 1992.259033,1701.996826 2162.101807,1702.079834 
	C2166.337646,1702.081909 2170.573242,1703.269043 2175.684082,1704.040283 
	C2173.280029,1709.861816 2169.922607,1715.503418 2166.740723,1721.242432 
	C2162.429932,1729.017456 2158.201660,1736.839355 2154.027832,1744.688965 
	C2126.177002,1797.066895 2092.621338,1845.609863 2054.728516,1891.971680 
	C2054.120117,1888.524780 2053.076416,1885.746948 2048.474121,1885.996948 
	C2045.816040,1886.141235 2043.142944,1886.001099 2040.476685,1886.001099 
	C1888.827515,1886.000000 1737.178345,1886.010620 1585.529175,1885.945190 
	C1581.292725,1885.943359 1577.056641,1885.128540 1572.663086,1883.452393 
	C1578.346313,1877.264893 1584.473877,1872.616089 1589.976562,1867.317993 
	C1612.109985,1846.007690 1625.835571,1819.610352 1635.658325,1790.887695 
	C1645.515503,1762.063843 1649.282593,1732.096802 1652.573364,1702.031494 
z"/>
<path fill="#1FAB77" opacity="1.000000" stroke="none" 
	d="
M1864.852051,2076.400879 
	C1863.998413,2073.426270 1865.559448,2072.006836 1869.373047,2072.041992 
	C1868.572144,2073.442383 1867.018433,2074.831543 1864.852051,2076.400879 
z"/>
<path fill="#F1F8F5" opacity="1.000000" stroke="none" 
	d="
M1652.423096,1701.156982 
	C1649.282593,1732.096802 1645.515503,1762.063843 1635.658325,1790.887695 
	C1625.835571,1819.610352 1612.109985,1846.007690 1589.976562,1867.317993 
	C1584.473877,1872.616089 1578.346313,1877.264893 1572.152832,1882.747314 
	C1557.545410,1891.865601 1542.894287,1899.577637 1526.635132,1903.727173 
	C1501.391357,1910.169678 1476.036621,1909.785889 1450.611694,1904.928345 
	C1448.330322,1904.492676 1446.039185,1904.108032 1442.913818,1903.689331 
	C1427.364258,1898.527222 1412.161377,1894.445679 1398.063599,1887.961182 
	C1379.055908,1879.218384 1360.907349,1868.610107 1342.375854,1858.829712 
	C1311.248413,1842.401978 1285.354248,1818.893311 1258.489746,1796.715942 
	C1254.968262,1793.808838 1252.200684,1789.988281 1248.185547,1785.722168 
	C1213.724731,1754.022095 1182.668701,1720.800537 1153.178345,1686.091064 
	C1143.519043,1674.722412 1133.959839,1663.268555 1124.127197,1651.206543 
	C1096.184448,1612.112427 1068.353638,1573.747925 1040.822510,1535.169678 
	C1032.178833,1523.057495 1024.340820,1510.370605 1016.014404,1497.256836 
	C1004.597961,1477.734009 993.111450,1459.011719 982.041443,1440.046265 
	C953.673157,1391.444580 927.749512,1341.547852 903.508545,1290.769043 
	C902.049683,1287.713135 900.284912,1284.803467 898.051697,1280.704590 
	C895.895142,1284.760254 894.575623,1287.044434 893.435669,1289.414917 
	C870.489746,1337.126953 849.765686,1385.784302 832.465881,1435.827759 
	C825.413330,1456.228760 819.644043,1477.073364 812.893921,1498.330566 
	C805.866455,1527.275391 798.478027,1555.456543 792.852234,1583.985107 
	C788.574402,1605.677612 785.246582,1627.680420 785.678101,1650.803223 
	C783.281616,1670.286743 785.180664,1688.838257 787.252686,1707.365967 
	C789.113770,1724.006836 793.191833,1740.078125 800.468628,1755.241333 
	C813.460571,1782.313721 835.225037,1795.510132 865.009949,1795.778809 
	C886.972107,1795.976807 907.845947,1790.463135 928.238831,1782.950439 
	C966.002625,1769.038208 1000.251648,1748.610840 1033.207153,1725.828979 
	C1036.764893,1723.369385 1040.245483,1720.723389 1044.049683,1718.707153 
	C1070.695068,1704.586182 1102.073608,1723.493164 1102.514771,1753.594849 
	C1102.676270,1764.613892 1098.058838,1773.484253 1091.960083,1781.984863 
	C1066.291260,1801.453247 1038.976196,1818.305420 1010.625732,1833.564697 
	C979.463379,1850.337524 946.997742,1863.652588 912.297729,1871.025757 
	C882.281677,1877.403809 852.256836,1878.434814 822.327393,1870.171997 
	C807.105225,1865.969482 792.963135,1859.514282 779.851135,1850.725708 
	C762.341980,1838.989746 746.620911,1825.383789 736.324829,1806.670532 
	C729.736816,1794.696777 722.152588,1783.092773 719.670898,1769.197632 
	C718.917419,1764.978760 717.095886,1760.950806 715.447876,1756.205933 
	C700.432190,1697.861572 702.991638,1639.824951 711.824951,1580.844482 
	C715.689392,1561.221436 719.126343,1542.303711 723.675781,1523.657593 
	C729.249390,1500.814453 735.827515,1478.217896 741.833984,1455.478516 
	C746.824097,1436.587036 751.939392,1417.745361 759.826660,1399.029053 
	C766.852722,1381.447998 773.113403,1364.319092 780.362122,1347.619019 
	C795.428711,1312.907715 810.988708,1278.410278 826.411499,1243.854126 
	C831.532227,1232.380615 836.853760,1220.996460 842.796021,1208.494385 
	C844.210205,1206.322754 844.829834,1205.164307 845.626526,1204.143921 
	C853.745850,1193.744019 857.411377,1183.962646 851.462402,1169.789917 
	C829.415039,1117.264648 811.608215,1063.166748 795.971191,1008.374756 
	C795.370178,1006.268555 794.233887,1004.315125 793.491333,1002.619995 
	C792.068970,1002.503967 791.379700,1002.289062 790.764038,1002.420166 
	C743.809082,1012.416077 697.633240,1025.145996 652.950012,1042.819702 
	C618.454407,1056.463745 585.198914,1072.591064 556.019653,1095.929688 
	C540.059692,1108.695190 525.548523,1122.872437 516.744690,1141.860474 
	C505.030060,1167.126465 509.936340,1190.326782 525.357239,1212.256470 
	C534.039185,1222.667969 541.927185,1233.890503 551.565308,1243.325317 
	C572.859802,1264.170898 597.758972,1280.293213 623.641602,1294.885620 
	C630.598328,1298.807983 637.892029,1302.188477 644.590027,1306.502319 
	C658.675781,1315.574463 665.684631,1328.760376 663.668396,1345.491211 
	C661.763184,1361.300537 652.765686,1372.475952 637.715637,1378.071411 
	C627.667908,1381.807007 617.280090,1381.813965 607.625732,1376.909668 
	C561.061462,1353.256104 517.560486,1325.252686 481.671936,1286.678101 
	C466.142517,1269.986450 453.436554,1251.354980 443.278931,1230.206787 
	C438.321533,1215.816162 433.551208,1202.094727 431.527435,1187.447876 
	C427.670074,1159.530640 432.671692,1133.253174 444.076843,1107.870117 
	C445.302032,1105.143433 446.648102,1102.471069 448.063934,1099.086426 
	C458.573120,1082.973633 468.441559,1067.095337 482.421417,1054.537231 
	C493.781555,1044.332520 505.239624,1034.184448 517.234558,1024.748901 
	C551.213623,998.020386 590.293091,980.697937 630.279480,965.451172 
	C651.350342,957.416687 673.089050,951.133728 695.243408,943.776855 
	C721.867920,936.956421 747.775269,930.419128 774.760437,923.609863 
	C764.506714,871.744873 756.066040,820.194336 753.722778,766.947754 
	C753.668457,752.735413 753.818909,739.429626 753.855042,726.123535 
	C753.950500,691.025635 758.468872,656.471069 768.527222,622.887268 
	C772.983154,608.009521 779.965942,593.888428 785.909729,578.713501 
	C796.417175,561.722900 807.193298,545.795044 821.845276,532.828857 
	C843.669922,513.515259 868.877747,502.016937 897.733093,497.855316 
	C936.690308,492.236725 973.101318,501.405731 1008.476440,516.342957 
	C1047.741455,532.922668 1082.739380,556.548889 1115.969727,582.952576 
	C1118.837036,585.230774 1121.778931,587.414856 1125.650879,590.466370 
	C1128.510254,593.166199 1130.456665,594.993164 1132.291138,596.926453 
	C1146.620850,612.028259 1146.647217,636.272339 1132.215210,651.087769 
	C1117.039307,666.666870 1095.302856,668.584534 1078.034546,654.962769 
	C1057.623657,638.862000 1037.044434,623.065369 1014.717529,609.641235 
	C988.250000,593.727661 960.683594,580.619202 929.615234,576.942505 
	C904.852234,574.012024 883.612671,580.979858 867.369446,600.861938 
	C855.500427,615.389893 848.814636,632.319824 843.960205,650.103699 
	C834.121521,686.147278 832.600769,722.951782 834.178833,760.923767 
	C834.814148,774.778320 834.827332,787.826721 836.455688,800.670349 
	C839.921936,828.010681 844.076111,855.268005 848.273865,882.509155 
	C849.670654,891.573792 852.061523,900.485229 853.861694,908.834534 
	C855.877014,909.349670 856.534424,909.716553 857.138611,909.643494 
	C879.244995,906.969727 901.291931,903.631958 923.461243,901.688354 
	C958.907410,898.580811 994.419250,896.152222 1029.933716,893.919983 
	C1048.250366,892.768616 1043.711182,895.301880 1055.405762,880.818665 
	C1065.619629,868.169128 1075.086426,854.917725 1085.251221,842.226868 
	C1093.107422,832.418335 1101.479980,823.019714 1109.724121,813.526733 
	C1115.161743,807.265381 1120.693237,801.080383 1126.334351,795.001770 
	C1136.479248,784.069702 1146.738159,773.243225 1157.551514,762.143860 
	C1173.524170,746.710083 1188.848389,731.457397 1204.275513,716.309692 
	C1240.924316,680.324829 1280.306763,647.589539 1321.908691,617.494141 
	C1327.532593,613.425720 1332.792114,608.832825 1338.550537,604.976013 
	C1346.234009,599.829895 1354.240479,595.166443 1362.108276,590.295776 
	C1375.255859,583.180176 1388.342651,575.949585 1401.562500,568.971252 
	C1437.402954,550.052307 1474.883057,535.429443 1515.292603,530.538940 
	C1549.467651,526.402954 1583.019653,529.603333 1614.177856,546.174316 
	C1630.231079,554.712036 1644.012451,566.125122 1656.747559,579.847656 
	C1662.370361,587.937073 1667.728149,595.538330 1672.510620,603.485718 
	C1686.265503,626.343872 1693.436279,651.483154 1698.062378,677.560181 
	C1702.568970,702.963623 1702.269897,728.559387 1702.283691,755.106201 
	C1700.102661,787.480896 1695.849609,818.645630 1690.597168,849.755188 
	C1685.557373,879.604431 1648.914551,896.192383 1622.940186,872.743164 
	C1610.391235,861.414185 1609.035278,847.872131 1610.829224,833.218750 
	C1612.295288,821.242859 1615.436401,809.472168 1617.959717,795.977783 
	C1622.204712,763.633728 1624.220093,732.883057 1619.887695,701.169067 
	C1619.265991,695.402649 1618.776855,690.437744 1617.822266,685.564026 
	C1614.341187,667.794189 1608.724243,650.828552 1598.050781,635.928101 
	C1589.195312,623.565735 1577.482056,615.152710 1562.570557,611.803894 
	C1544.404175,607.724121 1526.214966,608.942810 1508.221436,612.998352 
	C1487.375854,617.696777 1467.533691,625.309326 1448.403442,634.775818 
	C1411.932495,652.823303 1377.669189,674.343018 1345.448242,700.287476 
	C1325.423096,716.540039 1305.640747,732.112000 1286.760132,748.709534 
	C1271.875732,761.794006 1258.101562,776.141663 1243.834473,789.928345 
	C1230.104614,803.857117 1216.242676,817.658936 1202.688965,831.757080 
	C1192.800903,842.042419 1183.187744,852.601562 1173.696899,863.256531 
	C1165.829102,872.089294 1158.318481,881.240234 1149.434937,891.677307 
	C1153.992432,891.921692 1156.795288,892.092590 1159.600220,892.219360 
	C1191.123413,893.643860 1222.694580,894.401917 1254.157349,896.664856 
	C1286.245239,898.972717 1318.226318,902.763611 1350.256348,905.882935 
	C1352.239014,906.076050 1354.240723,906.075195 1357.116699,906.085388 
	C1370.809570,907.935181 1383.654785,909.654968 1396.422119,911.831848 
	C1436.392822,918.646851 1476.518066,924.725647 1516.243408,932.769714 
	C1574.653198,944.597168 1632.055542,960.475586 1688.258057,980.422119 
	C1740.448853,998.944946 1791.112915,1020.861145 1839.358643,1049.618286 
	C1855.419434,1060.633423 1871.344482,1070.824219 1886.095703,1082.498291 
	C1916.723267,1106.737305 1944.151123,1134.009155 1961.094360,1170.031494 
	C1964.887451,1178.096069 1967.638306,1186.651001 1971.356201,1195.503906 
	C1973.318115,1206.501099 1975.444336,1216.930664 1976.151733,1227.455811 
	C1978.824951,1267.234253 1964.930176,1301.593140 1940.665161,1332.329102 
	C1936.763550,1337.271118 1932.504883,1341.931274 1928.145752,1347.340332 
	C1911.904175,1360.980591 1896.602661,1374.957764 1879.806152,1386.817383 
	C1848.626587,1408.832642 1814.203979,1424.998901 1778.481323,1438.214478 
	C1757.294189,1446.052490 1735.320312,1436.047241 1727.312012,1415.911377 
	C1719.203735,1395.524170 1728.096680,1373.856323 1748.761108,1364.369385 
	C1760.560181,1358.952515 1772.820435,1354.499634 1784.431885,1348.725220 
	C1797.686157,1342.133911 1810.449951,1334.556152 1824.414551,1326.532104 
	C1829.750122,1322.775757 1833.935181,1319.603027 1838.474121,1317.062988 
	C1858.661743,1305.765991 1874.262573,1289.695679 1886.351685,1270.288208 
	C1898.414185,1250.923462 1900.060669,1230.218384 1890.882446,1209.254272 
	C1877.334717,1178.309448 1853.339111,1156.615601 1825.841187,1137.306885 
	C1820.297974,1133.123901 1815.192993,1129.379517 1809.889282,1125.941895 
	C1760.358154,1093.840088 1706.393555,1071.220825 1650.850342,1052.103149 
	C1602.981445,1035.626953 1554.227783,1022.116760 1504.596802,1012.227722 
	C1463.529663,1004.045044 1422.269287,996.627747 1380.862183,990.421021 
	C1348.665283,985.594910 1316.168457,982.429688 1283.700073,979.840698 
	C1243.250244,976.615356 1202.712158,974.322388 1162.174194,972.448425 
	C1139.894897,971.418457 1117.534058,972.261658 1095.217529,971.854004 
	C1088.947510,971.739441 1084.819580,973.429077 1081.136108,978.852051 
	C1055.318115,1016.861633 1028.973511,1054.514038 1003.225037,1092.570068 
	C994.667969,1105.217285 987.365601,1118.713257 978.969055,1132.222656 
	C968.872986,1148.927002 959.548706,1165.385986 949.583679,1181.447266 
	C946.168518,1186.951660 946.049561,1191.467651 948.738159,1197.154419 
	C963.383240,1228.131836 977.735901,1259.247559 992.249817,1290.287354 
	C993.216187,1292.354126 994.684082,1294.186401 996.021240,1296.837158 
	C1017.535034,1336.914551 1038.559204,1376.500244 1060.522217,1415.557861 
	C1071.394287,1434.892334 1083.995117,1453.254761 1095.978027,1472.738037 
	C1098.199585,1476.808472 1100.141357,1480.274536 1102.331787,1483.575317 
	C1131.367676,1527.329468 1161.559570,1570.261597 1194.828247,1610.924561 
	C1208.059570,1627.096558 1222.161987,1642.555908 1236.126587,1658.943970 
	C1258.267700,1681.881104 1279.484009,1704.918823 1302.192505,1726.377319 
	C1334.190308,1756.613770 1368.878906,1783.530273 1407.873047,1804.447510 
	C1427.611694,1815.035767 1448.088989,1823.931519 1470.385376,1827.150024 
	C1504.850586,1832.125122 1529.879150,1823.916382 1548.987793,1789.997681 
	C1551.752930,1785.089355 1554.171875,1779.926880 1556.192383,1774.667480 
	C1571.135254,1735.772095 1574.122437,1695.181519 1573.215576,1653.184326 
	C1573.086548,1646.038940 1572.655640,1639.743896 1572.415894,1633.441528 
	C1571.011108,1596.514160 1565.646240,1560.067993 1558.741821,1523.842651 
	C1555.433838,1506.487305 1551.235229,1489.301880 1547.487793,1471.271240 
	C1540.979126,1446.133423 1535.273071,1421.494629 1527.662354,1397.458740 
	C1516.840454,1363.281494 1504.618652,1329.547607 1492.832153,1294.866699 
	C1478.897217,1260.301636 1465.447876,1226.357422 1451.225098,1192.740601 
	C1443.388428,1174.217896 1434.252319,1156.244995 1425.656738,1137.195923 
	C1418.949097,1114.063965 1428.659058,1097.484253 1440.601562,1089.735962 
	C1461.685059,1076.056763 1487.313721,1082.816162 1498.870850,1105.247803 
	C1504.476929,1116.128784 1509.762207,1127.174927 1515.365601,1138.881348 
	C1526.404053,1164.966797 1537.935791,1190.056763 1547.974121,1215.730591 
	C1561.999268,1251.600708 1574.909912,1287.906616 1588.297363,1324.026123 
	C1608.057129,1382.131714 1624.112305,1441.233276 1635.977539,1501.459961 
	C1637.386230,1508.610962 1638.718750,1515.776855 1640.356934,1523.611328 
	C1647.802979,1571.104736 1653.751221,1618.044067 1653.591797,1665.524170 
	C1653.552856,1677.111572 1652.733521,1688.696411 1652.423096,1701.156982 
M890.635193,985.720337 
	C885.179749,986.533264 879.724365,987.346252 873.469971,988.278259 
	C884.027649,1024.096069 894.140137,1058.600220 907.800049,1093.122925 
	C933.484985,1053.556030 958.214478,1015.460999 983.567383,976.405640 
	C980.445374,976.405640 978.521057,976.263245 976.623535,976.428345 
	C962.383972,977.667114 948.129272,978.776550 933.919495,980.301208 
	C920.044983,981.789856 906.217957,983.721985 890.635193,985.720337 
z"/>
<path fill="#66C587" opacity="1.000000" stroke="none" 
	d="
M526.035889,1211.843018 
	C509.936340,1190.326782 505.030060,1167.126465 516.744690,1141.860474 
	C525.548523,1122.872437 540.059692,1108.695190 556.019653,1095.929688 
	C585.198914,1072.591064 618.454407,1056.463745 652.950012,1042.819702 
	C697.633240,1025.145996 743.809082,1012.416077 790.764038,1002.420166 
	C791.379700,1002.289062 792.068970,1002.503967 793.491333,1002.619995 
	C794.233887,1004.315125 795.370178,1006.268555 795.971191,1008.374756 
	C811.608215,1063.166748 829.415039,1117.264648 851.462402,1169.789917 
	C857.411377,1183.962646 853.745850,1193.744019 845.626526,1204.143921 
	C844.829834,1205.164307 844.210205,1206.322754 842.931458,1207.770264 
	C838.491943,1207.415405 834.630066,1206.094238 830.766663,1206.089722 
	C733.664001,1205.975586 636.561218,1206.019165 539.458496,1205.947021 
	C534.262268,1205.943115 529.450806,1206.071533 526.035889,1211.843018 
z"/>
<path fill="#84D08E" opacity="1.000000" stroke="none" 
	d="
M1619.806641,702.012451 
	C1624.220093,732.883057 1622.204712,763.633728 1617.897949,795.176758 
	C1611.183594,792.231873 1604.112549,791.901672 1596.729004,791.910156 
	C1484.561646,792.039490 1372.394287,792.023010 1260.226929,791.922974 
	C1255.324585,791.918640 1250.423218,790.787048 1244.677979,790.054443 
	C1258.101562,776.141663 1271.875732,761.794006 1286.760132,748.709534 
	C1305.640747,732.112000 1325.423096,716.540039 1346.128418,700.573853 
	C1353.654175,700.414490 1359.867676,700.030396 1366.081543,700.026978 
	C1441.414185,699.985413 1516.746948,699.930969 1592.079224,700.088867 
	C1601.323120,700.108215 1610.564209,701.341675 1619.806641,702.012451 
z"/>
<path fill="#5EC285" opacity="1.000000" stroke="none" 
	d="
M1826.187256,1137.887817 
	C1853.339111,1156.615601 1877.334717,1178.309448 1890.882446,1209.254272 
	C1900.060669,1230.218384 1898.414185,1250.923462 1886.351685,1270.288208 
	C1874.262573,1289.695679 1858.661743,1305.765991 1838.474121,1317.062988 
	C1833.935181,1319.603027 1829.750122,1322.775757 1824.757202,1325.924072 
	C1820.777954,1320.416870 1815.249146,1319.970581 1809.419189,1319.979858 
	C1781.166870,1320.024536 1752.914551,1320.000000 1724.662231,1320.000000 
	C1685.773682,1320.000000 1646.884521,1320.107544 1607.997192,1319.894409 
	C1601.499023,1319.858765 1595.501831,1320.795410 1589.047363,1323.910889 
	C1574.909912,1287.906616 1561.999268,1251.600708 1547.974121,1215.730591 
	C1537.935791,1190.056763 1526.404053,1164.966797 1516.374756,1138.840576 
	C1611.053345,1138.043091 1704.895996,1137.989502 1798.738525,1138.060425 
	C1806.327393,1138.066162 1813.912231,1139.021362 1821.507568,1139.306274 
	C1823.047485,1139.364136 1824.626343,1138.387451 1826.187256,1137.887817 
z"/>
<path fill="#8AD28F" opacity="1.000000" stroke="none" 
	d="
M1362.045410,589.441895 
	C1354.240479,595.166443 1346.234009,599.829895 1338.550537,604.976013 
	C1332.792114,608.832825 1327.532593,613.425720 1321.908691,617.494141 
	C1280.306763,647.589539 1240.924316,680.324829 1204.275513,716.309692 
	C1188.848389,731.457397 1173.524170,746.710083 1156.757324,761.799561 
	C1151.421997,757.748291 1146.448608,757.963135 1141.399658,757.965698 
	C1047.919678,758.012573 954.439697,757.945496 860.959900,758.088196 
	C852.068542,758.101746 843.179016,759.349792 834.288635,760.024780 
	C832.600769,722.951782 834.121521,686.147278 843.960205,650.103699 
	C848.814636,632.319824 855.500427,615.389893 867.369446,600.861938 
	C883.612671,580.979858 904.852234,574.012024 929.615234,576.942505 
	C960.683594,580.619202 988.250000,593.727661 1014.717529,609.641235 
	C1037.044434,623.065369 1057.623657,638.862000 1078.034546,654.962769 
	C1095.302856,668.584534 1117.039307,666.666870 1132.215210,651.087769 
	C1146.647217,636.272339 1146.620850,612.028259 1132.291138,596.926453 
	C1130.456665,594.993164 1128.510254,593.166199 1126.277100,590.725647 
	C1126.276611,586.224060 1128.390747,584.144409 1132.369141,584.038086 
	C1133.698242,584.002563 1135.028564,584.001831 1136.358276,584.001770 
	C1208.501099,584.000183 1280.644043,583.978516 1352.786743,584.065247 
	C1356.361450,584.069580 1361.324829,582.232971 1362.045410,589.441895 
z"/>
<path fill="#34B37C" opacity="1.000000" stroke="none" 
	d="
M1092.900146,1781.994263 
	C1098.058838,1773.484253 1102.676270,1764.613892 1102.514771,1753.594849 
	C1102.073608,1723.493164 1070.695068,1704.586182 1044.049683,1718.707153 
	C1040.245483,1720.723389 1036.764893,1723.369385 1033.207153,1725.828979 
	C1000.251648,1748.610840 966.002625,1769.038208 928.238831,1782.950439 
	C907.845947,1790.463135 886.972107,1795.976807 865.009949,1795.778809 
	C835.225037,1795.510132 813.460571,1782.313721 800.468628,1755.241333 
	C793.191833,1740.078125 789.113770,1724.006836 787.252686,1707.365967 
	C785.180664,1688.838257 783.281616,1670.286743 786.624756,1650.806152 
	C899.964905,1651.147827 1012.181091,1647.653809 1124.354858,1651.853638 
	C1133.959839,1663.268555 1143.519043,1674.722412 1153.178345,1686.091064 
	C1182.668701,1720.800537 1213.724731,1754.022095 1247.557007,1785.458252 
	C1246.165894,1785.989258 1244.213745,1786.460693 1242.890503,1785.754272 
	C1233.244019,1780.604370 1222.832642,1782.051636 1212.626343,1782.031860 
	C1173.031250,1781.954956 1133.435669,1782.002441 1092.900146,1781.994263 
z"/>
<path fill="#6AC788" opacity="1.000000" stroke="none" 
	d="
M1825.841187,1137.306885 
	C1824.626343,1138.387451 1823.047485,1139.364136 1821.507568,1139.306274 
	C1813.912231,1139.021362 1806.327393,1138.066162 1798.738525,1138.060425 
	C1704.895996,1137.989502 1611.053345,1138.043091 1516.201660,1138.105469 
	C1509.762207,1127.174927 1504.476929,1116.128784 1498.870850,1105.247803 
	C1487.313721,1082.816162 1461.685059,1076.056763 1440.601562,1089.735962 
	C1428.659058,1097.484253 1418.949097,1114.063965 1424.834473,1137.165771 
	C1418.487671,1137.309326 1412.919556,1136.105103 1407.347534,1136.086548 
	C1361.390381,1135.933350 1315.432373,1135.997070 1269.474731,1136.007690 
	C1266.813721,1136.008301 1264.025146,1135.658447 1261.539673,1136.349121 
	C1260.044434,1136.764526 1259.021851,1138.880493 1257.102051,1140.086670 
	C1235.186768,1126.598999 1212.240845,1122.317505 1187.906006,1128.293823 
	C1179.016724,1130.476807 1170.661011,1134.832520 1162.011475,1137.355957 
	C1160.542969,1135.033203 1159.362427,1132.781738 1157.650269,1132.253540 
	C1155.219604,1131.504028 1152.397583,1132.005493 1149.742920,1132.002563 
	C1092.991821,1131.939575 1036.240723,1131.880859 979.489685,1131.821289 
	C987.365601,1118.713257 994.667969,1105.217285 1003.225037,1092.570068 
	C1028.973511,1054.514038 1055.318115,1016.861633 1081.136108,978.852051 
	C1084.819580,973.429077 1088.947510,971.739441 1095.217529,971.854004 
	C1117.534058,972.261658 1139.894897,971.418457 1162.174194,972.448425 
	C1202.712158,974.322388 1243.250244,976.615356 1283.700073,979.840698 
	C1316.168457,982.429688 1348.665283,985.594910 1380.862183,990.421021 
	C1422.269287,996.627747 1463.529663,1004.045044 1504.596802,1012.227722 
	C1554.227783,1022.116760 1602.981445,1035.626953 1650.850342,1052.103149 
	C1706.393555,1071.220825 1760.358154,1093.840088 1809.889282,1125.941895 
	C1815.192993,1129.379517 1820.297974,1133.123901 1825.841187,1137.306885 
z"/>
<path fill="#50BD82" opacity="1.000000" stroke="none" 
	d="
M1492.994995,1295.624023 
	C1504.618652,1329.547607 1516.840454,1363.281494 1527.662354,1397.458740 
	C1535.273071,1421.494629 1540.979126,1446.133423 1546.682007,1471.236328 
	C1540.593628,1471.313110 1535.359375,1470.087280 1530.124146,1470.083130 
	C1395.254028,1469.977905 1260.383667,1469.956909 1125.513550,1470.088623 
	C1115.612915,1470.098267 1105.713745,1471.371216 1095.813843,1472.056885 
	C1083.995117,1453.254761 1071.394287,1434.892334 1060.522217,1415.557861 
	C1038.559204,1376.500244 1017.535034,1336.914551 996.424316,1296.138916 
	C1000.014954,1290.573730 1004.666626,1292.064697 1008.798889,1292.057007 
	C1056.962158,1291.968018 1105.125610,1292.035400 1153.288818,1291.930786 
	C1157.025757,1291.922729 1161.430420,1293.563232 1164.907715,1289.462158 
	C1181.461670,1298.054199 1198.343750,1302.099121 1216.148804,1299.977661 
	C1225.528564,1298.860229 1234.683228,1295.853271 1244.064697,1294.426025 
	C1245.156860,1295.828125 1246.145142,1297.111450 1247.087280,1297.078735 
	C1252.354248,1296.895020 1257.609863,1296.056396 1262.869873,1296.050781 
	C1334.933960,1295.975464 1406.998169,1296.006958 1479.062256,1295.983765 
	C1483.706543,1295.982300 1488.350708,1295.749390 1492.994995,1295.624023 
z"/>
<path fill="#40B77F" opacity="1.000000" stroke="none" 
	d="
M1095.978027,1472.738037 
	C1105.713745,1471.371216 1115.612915,1470.098267 1125.513550,1470.088623 
	C1260.383667,1469.956909 1395.254028,1469.977905 1530.124146,1470.083130 
	C1535.359375,1470.087280 1540.593628,1471.313110 1546.634033,1472.004639 
	C1551.235229,1489.301880 1555.433838,1506.487305 1558.741821,1523.842651 
	C1565.646240,1560.067993 1571.011108,1596.514160 1572.415894,1633.441528 
	C1572.655640,1639.743896 1573.086548,1646.038940 1572.349121,1653.180420 
	C1463.321411,1654.015869 1355.374023,1654.006470 1247.426514,1654.007935 
	C1244.764771,1654.007935 1241.970215,1653.661133 1239.491577,1654.367676 
	C1238.025391,1654.785522 1237.058960,1656.956787 1235.867676,1658.339600 
	C1222.161987,1642.555908 1208.059570,1627.096558 1194.828247,1610.924561 
	C1161.559570,1570.261597 1131.367676,1527.329468 1102.331787,1483.575317 
	C1100.141357,1480.274536 1098.199585,1476.808472 1095.978027,1472.738037 
z"/>
<path fill="#3FB77E" opacity="1.000000" stroke="none" 
	d="
M1124.127197,1651.206543 
	C1012.181091,1647.653809 899.964905,1651.147827 786.827637,1649.994385 
	C785.246582,1627.680420 788.574402,1605.677612 792.852234,1583.985107 
	C798.478027,1555.456543 805.866455,1527.275391 813.793335,1498.400757 
	C822.323486,1497.237671 829.555542,1496.106201 836.791199,1496.082764 
	C885.684204,1495.924072 934.578491,1495.885132 983.471130,1496.088379 
	C994.361145,1496.133545 1005.246582,1497.297729 1016.134094,1497.946533 
	C1024.340820,1510.370605 1032.178833,1523.057495 1040.822510,1535.169678 
	C1068.353638,1573.747925 1096.184448,1612.112427 1124.127197,1651.206543 
z"/>
<path fill="#32B27C" opacity="1.000000" stroke="none" 
	d="
M1236.126465,1658.943848 
	C1237.058960,1656.956787 1238.025391,1654.785522 1239.491577,1654.367676 
	C1241.970215,1653.661133 1244.764771,1654.007935 1247.426514,1654.007935 
	C1355.374023,1654.006470 1463.321411,1654.015869 1572.135376,1654.027588 
	C1574.122437,1695.181519 1571.135254,1735.772095 1556.192383,1774.667480 
	C1554.171875,1779.926880 1551.752930,1785.089355 1548.987793,1789.997681 
	C1529.879150,1823.916382 1504.850586,1832.125122 1470.385376,1827.150024 
	C1448.088989,1823.931519 1427.611694,1815.035767 1407.873047,1804.447510 
	C1368.878906,1783.530273 1334.190308,1756.613770 1302.192505,1726.377319 
	C1279.484009,1704.918823 1258.267700,1681.881104 1236.126465,1658.943848 
z"/>
<path fill="#7DCE8C" opacity="1.000000" stroke="none" 
	d="
M834.178833,760.923706 
	C843.179016,759.349792 852.068542,758.101746 860.959900,758.088196 
	C954.439697,757.945496 1047.919678,758.012573 1141.399658,757.965698 
	C1146.448608,757.963135 1151.421997,757.748291 1156.155518,762.028320 
	C1146.738159,773.243225 1136.479248,784.069702 1126.334351,795.001770 
	C1120.693237,801.080383 1115.161743,807.265381 1109.724121,813.526733 
	C1101.479980,823.019714 1093.107422,832.418335 1085.251221,842.226868 
	C1075.086426,854.917725 1065.619629,868.169128 1055.405762,880.818665 
	C1043.711182,895.301880 1048.250366,892.768616 1029.933716,893.919983 
	C994.419250,896.152222 958.907410,898.580811 923.461243,901.688354 
	C901.291931,903.631958 879.244995,906.969727 857.138611,909.643494 
	C856.534424,909.716553 855.877014,909.349670 853.861694,908.834534 
	C852.061523,900.485229 849.670654,891.573792 848.273865,882.509155 
	C844.076111,855.268005 839.921936,828.010681 836.455688,800.670349 
	C834.827332,787.826721 834.814148,774.778320 834.178833,760.923706 
z"/>
<path fill="#5EC285" opacity="1.000000" stroke="none" 
	d="
M1492.832153,1294.866699 
	C1488.350708,1295.749390 1483.706543,1295.982300 1479.062256,1295.983765 
	C1406.998169,1296.006958 1334.933960,1295.975464 1262.869873,1296.050781 
	C1257.609863,1296.056396 1252.354248,1296.895020 1247.087280,1297.078735 
	C1246.145142,1297.111450 1245.156860,1295.828125 1244.497803,1293.915771 
	C1245.982788,1292.056519 1247.149902,1291.414551 1248.338379,1290.814331 
	C1289.097534,1270.231812 1309.097412,1217.736694 1285.995850,1173.788696 
	C1280.178467,1162.721558 1272.332031,1153.496460 1263.714722,1143.964600 
	C1263.081909,1139.594604 1260.317383,1140.120117 1257.823242,1140.167969 
	C1257.842285,1140.178833 1257.786987,1140.232300 1257.786987,1140.232300 
	C1259.021851,1138.880493 1260.044434,1136.764526 1261.539673,1136.349121 
	C1264.025146,1135.658447 1266.813721,1136.008301 1269.474731,1136.007690 
	C1315.432373,1135.997070 1361.390381,1135.933350 1407.347534,1136.086548 
	C1412.919556,1136.105103 1418.487671,1137.309326 1424.879883,1137.994141 
	C1434.252319,1156.244995 1443.388428,1174.217896 1451.225098,1192.740601 
	C1465.447876,1226.357422 1478.897217,1260.301636 1492.832153,1294.866699 
z"/>
<path fill="#5EC286" opacity="1.000000" stroke="none" 
	d="
M1164.197754,1289.223511 
	C1161.430420,1293.563232 1157.025757,1291.922729 1153.288818,1291.930786 
	C1105.125610,1292.035400 1056.962158,1291.968018 1008.798889,1292.057007 
	C1004.666626,1292.064697 1000.014954,1290.573730 996.321777,1295.429443 
	C994.684082,1294.186401 993.216187,1292.354126 992.249817,1290.287354 
	C977.735901,1259.247559 963.383240,1228.131836 948.738159,1197.154419 
	C946.049561,1191.467651 946.168518,1186.951660 949.583679,1181.447266 
	C959.548706,1165.385986 968.872986,1148.927002 978.969055,1132.222656 
	C1036.240723,1131.880859 1092.991821,1131.939575 1149.742920,1132.002563 
	C1152.397583,1132.005493 1155.219604,1131.504028 1157.650269,1132.253540 
	C1159.362427,1132.781738 1160.542969,1135.033203 1161.602661,1137.892822 
	C1154.992554,1144.044189 1147.683960,1147.920776 1142.711426,1153.780151 
	C1132.644287,1165.642456 1125.227905,1179.041016 1122.613892,1194.975098 
	C1118.359741,1220.906982 1122.975342,1244.425537 1138.583862,1265.782593 
	C1145.593140,1275.373047 1154.934814,1282.205566 1164.197754,1289.223511 
z"/>
<path fill="#4EBC82" opacity="1.000000" stroke="none" 
	d="
M1016.014404,1497.256836 
	C1005.246582,1497.297729 994.361145,1496.133545 983.471130,1496.088379 
	C934.578491,1495.885132 885.684204,1495.924072 836.791199,1496.082764 
	C829.555542,1496.106201 822.323486,1497.237671 814.190308,1497.786377 
	C819.644043,1477.073364 825.413330,1456.228760 832.465881,1435.827759 
	C849.765686,1385.784302 870.489746,1337.126953 893.435669,1289.414917 
	C894.575623,1287.044434 895.895142,1284.760254 898.051697,1280.704590 
	C900.284912,1284.803467 902.049683,1287.713135 903.508545,1290.769043 
	C927.749512,1341.547852 953.673157,1391.444580 982.041443,1440.046265 
	C993.111450,1459.011719 1004.597961,1477.734009 1016.014404,1497.256836 
z"/>
<path fill="#8CD390" opacity="1.000000" stroke="none" 
	d="
M1619.887695,701.169067 
	C1610.564209,701.341675 1601.323120,700.108215 1592.079224,700.088867 
	C1516.746948,699.930969 1441.414185,699.985413 1366.081543,700.026978 
	C1359.867676,700.030396 1353.654175,700.414490 1346.760254,700.335449 
	C1377.669189,674.343018 1411.932495,652.823303 1448.403442,634.775818 
	C1467.533691,625.309326 1487.375854,617.696777 1508.221436,612.998352 
	C1526.214966,608.942810 1544.404175,607.724121 1562.570557,611.803894 
	C1577.482056,615.152710 1589.195312,623.565735 1598.050781,635.928101 
	C1608.724243,650.828552 1614.341187,667.794189 1617.822266,685.564026 
	C1618.776855,690.437744 1619.265991,695.402649 1619.887695,701.169067 
z"/>
<path fill="#70C98B" opacity="1.000000" stroke="none" 
	d="
M891.502686,985.589844 
	C906.217957,983.721985 920.044983,981.789856 933.919495,980.301208 
	C948.129272,978.776550 962.383972,977.667114 976.623535,976.428345 
	C978.521057,976.263245 980.445374,976.405640 983.567383,976.405640 
	C958.214478,1015.460999 933.484985,1053.556030 907.800049,1093.122925 
	C894.140137,1058.600220 884.027649,1024.096069 873.469971,988.278259 
	C879.724365,987.346252 885.179749,986.533264 891.502686,985.589844 
z"/>
<path fill="#F0F8F2" opacity="1.000000" stroke="none" 
	d="
M1164.907715,1289.462158 
	C1154.934814,1282.205566 1145.593140,1275.373047 1138.583862,1265.782593 
	C1122.975342,1244.425537 1118.359741,1220.906982 1122.613892,1194.975098 
	C1125.227905,1179.041016 1132.644287,1165.642456 1142.711426,1153.780151 
	C1147.683960,1147.920776 1154.992554,1144.044189 1161.653076,1138.733765 
	C1170.661011,1134.832520 1179.016724,1130.476807 1187.906006,1128.293823 
	C1212.240845,1122.317505 1235.186768,1126.598999 1257.102051,1140.086670 
	C1257.786987,1140.232300 1257.842285,1140.178833 1258.126953,1140.725586 
	C1260.176636,1142.424561 1261.941895,1143.576660 1263.707031,1144.728882 
	C1272.332031,1153.496460 1280.178467,1162.721558 1285.995850,1173.788696 
	C1309.097412,1217.736694 1289.097534,1270.231812 1248.338379,1290.814331 
	C1247.149902,1291.414551 1245.982788,1292.056519 1244.372559,1293.189209 
	C1234.683228,1295.853271 1225.528564,1298.860229 1216.148804,1299.977661 
	C1198.343750,1302.099121 1181.461670,1298.054199 1164.907715,1289.462158 
z"/>
<path fill="#6AC788" opacity="1.000000" stroke="none" 
	d="
M1263.714722,1143.964600 
	C1261.941895,1143.576660 1260.176636,1142.424561 1258.107788,1140.714722 
	C1260.317383,1140.120117 1263.081909,1139.594604 1263.714722,1143.964600 
z"/>
</svg>